<svg xmlns="http://www.w3.org/2000/svg" height="2048" preserveAspectRatio="none" style="display: block;" version="1.1" viewBox="240 240 1570 1570" width="2048">
<defs>
	<linearGradient gradientUnits="userSpaceOnUse" id="Gradient1" x1="893.795" x2="654.653" y1="903.654" y2="875.086">
		<stop class="stop0" offset="0" stop-color="rgb(51,93,228)" stop-opacity="1"></stop>
		<stop class="stop1" offset="1" stop-color="rgb(85,132,233)" stop-opacity="1"></stop>
	</linearGradient>
	<linearGradient gradientUnits="userSpaceOnUse" id="Gradient2" x1="1008.78" x2="766.76" y1="907.23" y2="1150.73">
		<stop class="stop0" offset="0" stop-color="rgb(53,97,230)" stop-opacity="1"></stop>
		<stop class="stop1" offset="1" stop-color="rgb(85,131,231)" stop-opacity="1"></stop>
	</linearGradient>
</defs>
<path d="M 639.213 985.822 C 599.029 1095.51 592.565 1205.47 627.414 1317 C 639.256 1356.84 654.688 1394.98 668.42 1434.25 C 687.28 1488.17 708.616 1559.35 653.349 1599.75 C 635.419 1612.86 607.014 1618.82 584.527 1613.8 C 513.029 1597.83 454.824 1528.62 411.284 1473.37 C 294.269 1310.4 338.141 1152.5 416.252 984.404 C 458.873 893.547 508.527 806.158 564.76 723.035 C 597.957 673.1 649.465 610.726 664.569 550.187 C 665.627 543.421 663.463 531.286 658.54 526.492 C 637.911 506.403 597.661 525.235 579.593 539.37 C 502.201 599.913 486.798 701.625 460.981 790.216 C 447.995 834.779 435.132 878.97 414.075 920.55 C 401.901 944.87 388.325 968.523 367.484 986.397 C 341.993 1008.26 308.482 1009.58 287.104 981.073 C 265.374 952.095 263.431 909.764 267.909 875.108 C 279.983 781.672 329.825 691.973 405.979 635.79 C 446.235 606.594 481.1 589.088 514.675 549.535 C 539.676 520.082 546.108 502.575 562.825 470.032 C 582.223 435.231 611.765 403.432 643.08 379.188 C 690.507 342.47 746.661 314.732 803.289 295.722 C 863.417 276.108 923.276 262.042 987.102 268.945 C 1033.84 273.999 1094.95 303.842 1087.98 360.48 C 1084.71 387.066 1066.48 410.709 1046.13 427.395 C 1019.77 449.022 989.265 461.264 958.316 475.187 C 940.483 483.258 922.8 491.653 905.274 500.369 C 844.055 529.864 786.008 565.532 732.035 606.819 C 772.375 606.208 790.658 604.266 828.817 623.286 L 832.297 619.92 C 839.486 610.411 850.115 599.519 858.887 591.474 C 916.423 531.82 996.616 476.07 1079.06 460.442 C 1159.26 445.241 1244.92 471.383 1303.86 527.606 C 1360.35 581.494 1360.44 641.059 1306.06 696.347 L 1305.32 697.091 C 1316.13 700.9 1333.88 700.434 1345.09 697.63 C 1333.07 715.585 1318.27 724.643 1299.82 734.606 C 1295.13 734.835 1291.95 736.721 1287.99 737.442 C 1269.36 740.835 1254.65 750 1237.3 757.126 C 1233.65 758.629 1218.13 763.703 1216.01 765.293 C 1210.27 769.752 1204.94 774.355 1199.1 778.731 C 1184.79 788.851 1166.12 805.986 1153.65 818.234 L 1134.95 837.21 L 1134.96 837.792 C 1125.52 847.107 1109.89 865.731 1102.24 876.899 L 1101.57 877.412 C 1073.64 916.496 1054.48 956.372 1045.92 1004.29 C 1041.9 1026.82 1043.03 1043.12 1037.08 1067.72 C 1034.19 1077.08 1030.95 1087.15 1022.01 1092.36 C 1022.64 1093.97 1024 1097.73 1024.7 1099.1 C 1026.43 1099.82 1026.47 1099.64 1027.25 1101.2 C 1025.98 1104.19 1026.21 1106.66 1025.44 1109.9 C 1023.63 1121.36 1020.74 1131.25 1014.46 1141.09 C 1003.88 1157.4 987.204 1168.78 968.166 1172.68 C 901.408 1186.71 847.367 1122.1 887.744 1061.19 C 878.697 1062.14 861.157 1081.5 856.264 1088.02 C 834.32 1117.29 811.357 1146.58 771.829 1148.81 C 770.311 1148.9 762.115 1149.52 761.068 1149.76 L 760.787 1149.09 C 722.02 1144.65 694.426 1120.16 672.926 1089.4 L 672.899 1088.89 C 653.461 1059.98 644.486 1019.9 639.213 985.822 z" fill="rgb(64,6,183)" transform="translate(0,0)"></path>
<path d="M 858.887 591.474 C 916.423 531.82 996.616 476.07 1079.06 460.442 C 1159.26 445.241 1244.92 471.383 1303.86 527.606 C 1360.35 581.494 1360.44 641.059 1306.06 696.347 L 1305.32 697.091 C 1316.13 700.9 1333.88 700.434 1345.09 697.63 C 1333.07 715.585 1318.27 724.643 1299.82 734.606 C 1295.13 734.835 1291.95 736.721 1287.99 737.442 C 1269.36 740.835 1254.65 750 1237.3 757.126 C 1233.65 758.629 1218.13 763.703 1216.01 765.293 C 1210.27 769.752 1204.94 774.355 1199.1 778.731 C 1184.79 788.851 1166.12 805.986 1153.65 818.234 L 1134.95 837.21 L 1134.96 837.792 C 1125.52 847.107 1109.89 865.731 1102.24 876.899 L 1101.57 877.412 C 1087.2 861.428 1050.22 849.983 1028.82 849.315 C 986.679 848 958.121 862.47 923.154 881.831 C 923.154 857.47 921.806 838.806 919.841 814.651 L 920.018 813.946 C 917.752 799.189 915.143 784.485 912.193 769.849 L 912.699 769.325 C 905.469 740.376 899.906 721.08 888.013 693.861 L 887.286 694.02 C 880.808 670.863 850.334 635.896 828.856 623.619 L 828.817 623.286 L 832.297 619.92 C 839.486 610.411 850.115 599.519 858.887 591.474 z" fill="rgb(64,6,183)" transform="translate(0,0)"></path>
<path d="M 858.887 591.474 C 916.423 531.82 996.616 476.07 1079.06 460.442 C 1159.26 445.241 1244.92 471.383 1303.86 527.606 C 1360.35 581.494 1360.44 641.059 1306.06 696.347 L 1305.32 697.091 C 1316.13 700.9 1333.88 700.434 1345.09 697.63 C 1333.07 715.585 1318.27 724.643 1299.82 734.606 C 1295.13 734.835 1291.95 736.721 1287.99 737.442 C 1269.36 740.835 1254.65 750 1237.3 757.126 C 1233.65 758.629 1218.13 763.703 1216.01 765.293 C 1210.27 769.752 1204.94 774.355 1199.1 778.731 C 1184.79 788.851 1166.12 805.986 1153.65 818.234 C 1145.36 796.242 1138.91 760.189 1138.95 736.583 L 1138.81 735.785 C 1137.25 726.936 1135.72 723.414 1135.26 713.59 C 1133.99 686.657 1147.14 664.849 1150.08 638.181 C 1153.29 609.121 1147.74 582.039 1129.41 558.848 C 1111.46 536.139 1083.8 522.915 1055.45 519.765 C 988.815 512.361 915.168 553.207 864.108 593.544 C 857.144 599.058 837.152 616.799 832.297 619.92 C 839.486 610.411 850.115 599.519 858.887 591.474 z" fill="rgb(77,123,230)" transform="translate(0,0)"></path>
<path d="M 1138.81 735.785 C 1139.01 718.081 1141.43 703.875 1153.62 689.829 C 1160.72 681.775 1169.78 675.683 1179.92 672.135 C 1220.6 657.885 1251.4 686.963 1289.82 694.85 C 1294.44 695.799 1300.7 697.745 1305.32 697.091 C 1316.13 700.9 1333.88 700.434 1345.09 697.63 C 1333.07 715.585 1318.27 724.643 1299.82 734.606 C 1295.13 734.835 1291.95 736.721 1287.99 737.442 C 1269.36 740.835 1254.65 750 1237.3 757.126 C 1233.65 758.629 1218.13 763.703 1216.01 765.293 C 1210.27 769.752 1204.94 774.355 1199.1 778.731 C 1184.79 788.851 1166.12 805.986 1153.65 818.234 C 1145.36 796.242 1138.91 760.189 1138.95 736.583 L 1138.81 735.785 z" fill="rgb(202,176,220)" transform="translate(0,0)"></path>
<path d="M 1138.95 736.583 C 1141.24 739.468 1142.83 743.159 1145.3 745.729 C 1155.51 756.334 1169.57 762.522 1184 764.632 C 1195.82 766.895 1207.17 763.888 1216.01 765.293 C 1210.27 769.752 1204.94 774.355 1199.1 778.731 C 1184.79 788.851 1166.12 805.986 1153.65 818.234 C 1145.36 796.242 1138.91 760.189 1138.95 736.583 z" fill="rgb(77,123,230)" transform="translate(0,0)"></path>
<path d="M 920.018 813.946 C 997.397 769.192 1076.14 757.168 1134.95 837.21 L 1134.96 837.792 C 1125.52 847.107 1109.89 865.731 1102.24 876.899 L 1101.57 877.412 C 1087.2 861.428 1050.22 849.983 1028.82 849.315 C 986.679 848 958.121 862.47 923.154 881.831 C 923.154 857.47 921.806 838.806 919.841 814.651 L 920.018 813.946 z" fill="rgb(77,123,230)" transform="translate(0,0)"></path>
<path d="M 888.013 693.861 C 917.679 680.832 966.645 665.926 999.116 675.687 C 1010.24 679.031 1017.56 692.523 1012.41 703.766 C 1002.82 724.722 977.156 735.468 957.694 745.547 C 942.608 753.307 927.609 761.233 912.699 769.325 C 905.469 740.376 899.906 721.08 888.013 693.861 z" fill="rgb(77,123,230)" transform="translate(0,0)"></path>
<path d="M 760.787 1149.09 C 759.538 1137.59 757.111 1125.22 755.489 1113.5 C 751.102 1081.81 752.329 1051.57 758.833 1020.27 C 776.343 936 848.758 859.828 919.841 814.651 C 921.806 838.806 923.154 857.47 923.154 881.831 C 958.121 862.47 986.679 848 1028.82 849.315 C 1050.22 849.983 1087.2 861.428 1101.57 877.412 C 1073.64 916.496 1054.48 956.372 1045.92 1004.29 C 1041.9 1026.82 1043.03 1043.12 1037.08 1067.72 C 1034.19 1077.08 1030.95 1087.15 1022.01 1092.36 C 1022.64 1093.97 1024 1097.73 1024.7 1099.1 C 1026.43 1099.82 1026.47 1099.64 1027.25 1101.2 C 1025.98 1104.19 1026.21 1106.66 1025.44 1109.9 C 1023.63 1121.36 1020.74 1131.25 1014.46 1141.09 C 1003.88 1157.4 987.204 1168.78 968.166 1172.68 C 901.408 1186.71 847.367 1122.1 887.744 1061.19 C 878.697 1062.14 861.157 1081.5 856.264 1088.02 C 834.32 1117.29 811.357 1146.58 771.829 1148.81 C 770.311 1148.9 762.115 1149.52 761.068 1149.76 L 760.787 1149.09 z" fill="url(#Gradient2)" transform="translate(0,0)"></path>
<path d="M 923.154 881.831 C 958.121 862.47 986.679 848 1028.82 849.315 C 1050.22 849.983 1087.2 861.428 1101.57 877.412 C 1073.64 916.496 1054.48 956.372 1045.92 1004.29 C 1041.9 1026.82 1043.03 1043.12 1037.08 1067.72 C 1015.27 997.98 968.957 932.885 895.253 991.977 C 912.066 954.44 920.707 924.246 922.313 882.58 L 923.154 881.831 z" fill="rgb(64,6,183)" transform="translate(0,0)"></path>
<path d="M 888.871 1060.4 C 901.294 1063.4 1015.98 1090.52 1020.64 1089.14 L 1022.01 1092.36 C 1022.64 1093.97 1024 1097.73 1024.7 1099.1 C 1026.43 1099.82 1026.47 1099.64 1027.25 1101.2 C 1025.98 1104.19 1026.21 1106.66 1025.44 1109.9 C 1023.63 1121.36 1020.74 1131.25 1014.46 1141.09 C 1003.88 1157.4 987.204 1168.78 968.166 1172.68 C 901.408 1186.71 847.367 1122.1 887.744 1061.19 L 888.871 1060.4 z" fill="rgb(64,6,183)" transform="translate(0,0)"></path>
<path d="M 1024.7 1099.1 C 1026.43 1099.82 1026.47 1099.64 1027.25 1101.2 C 1025.98 1104.19 1026.21 1106.66 1025.44 1109.9 C 1025.12 1106.26 1025.02 1102.74 1024.7 1099.1 z" fill="rgb(229,216,238)" transform="translate(0,0)"></path>
<path d="M 922.313 882.58 C 920.707 924.246 912.066 954.44 895.253 991.977 L 892.769 995.34 C 867.289 1019.76 856.592 1052.93 827.448 1069.87 C 824.051 1071.84 818.471 1072.19 814.586 1072.64 C 795.303 1063.39 795.421 1035.6 800.218 1017.81 C 815.66 960.556 873.72 912.733 922.313 882.58 z" fill="rgb(23,1,122)" transform="translate(0,0)"></path>
<path d="M 888.871 1060.4 C 899.229 1046.61 914.682 1037.54 931.775 1035.23 C 953.308 1032.13 974.629 1039.3 991.73 1052.31 C 1004.4 1061.87 1014.37 1074.56 1020.64 1089.14 C 1015.98 1090.52 901.294 1063.4 888.871 1060.4 z" fill="rgb(23,1,122)" transform="translate(0,0)"></path>
<path d="M 892.769 995.34 C 882.999 1019.65 868.937 1045.53 849.009 1063.07 C 842.214 1069.05 835.917 1073.69 826.983 1075.13 C 821.428 1076.03 819.387 1073.94 814.586 1072.64 C 818.471 1072.19 824.051 1071.84 827.448 1069.87 C 856.592 1052.93 867.289 1019.76 892.769 995.34 z" fill="rgb(77,123,230)" transform="translate(0,0)"></path>
<path d="M 828.856 623.619 C 850.334 635.896 880.808 670.863 887.286 694.02 L 888.013 693.861 C 899.906 721.08 905.469 740.376 912.699 769.325 L 912.193 769.849 C 915.143 784.485 917.752 799.189 920.018 813.946 L 919.841 814.651 C 848.758 859.828 776.343 936 758.833 1020.27 C 752.329 1051.57 751.102 1081.81 755.489 1113.5 C 757.111 1125.22 759.538 1137.59 760.787 1149.09 C 722.02 1144.65 694.426 1120.16 672.926 1089.4 L 672.899 1088.89 C 653.461 1059.98 644.486 1019.9 639.213 985.822 L 640.411 981.847 C 637.689 976.461 637.447 960.077 637.373 953.568 C 636.799 902.721 643.795 861.172 658.732 812.987 C 676.216 796.335 693.233 783.713 709.657 764.219 C 747.989 718.723 786.395 664.966 828.856 623.619 z" fill="url(#Gradient1)" transform="translate(0,0)"></path>
<path d="M 672.899 1088.89 C 676.856 1080.46 681.087 1068.26 684.828 1059.25 C 691.652 1043.25 698.809 1027.39 706.294 1011.69 C 752.836 914.834 817.01 823.939 912.193 769.849 C 915.143 784.485 917.752 799.189 920.018 813.946 L 919.841 814.651 C 848.758 859.828 776.343 936 758.833 1020.27 C 752.329 1051.57 751.102 1081.81 755.489 1113.5 C 757.111 1125.22 759.538 1137.59 760.787 1149.09 C 722.02 1144.65 694.426 1120.16 672.926 1089.4 L 672.899 1088.89 z" fill="rgb(64,6,183)" transform="translate(0,0)"></path>
<path d="M 828.856 623.619 C 850.334 635.896 880.808 670.863 887.286 694.02 C 755.488 759.815 688.237 844.262 640.411 981.847 C 637.689 976.461 637.447 960.077 637.373 953.568 C 636.799 902.721 643.795 861.172 658.732 812.987 C 676.216 796.335 693.233 783.713 709.657 764.219 C 747.989 718.723 786.395 664.966 828.856 623.619 z" fill="rgb(23,1,122)" transform="translate(0,0)"></path>
<path d="M 732.035 606.819 C 772.375 606.208 790.658 604.266 828.817 623.286 L 828.856 623.619 C 786.395 664.966 747.989 718.723 709.657 764.219 C 693.233 783.713 676.216 796.335 658.732 812.987 C 649.093 818.915 640.406 823.455 628.511 823.227 C 620.561 823.07 613.01 819.716 607.564 813.923 C 591.598 796.798 601.194 766.203 609.532 747.633 C 628.131 706.209 657.139 673.963 689.224 642.788 C 700.989 632.864 716.568 619.723 728.025 609.662 L 732.035 606.819 z" fill="rgb(249,117,154)" transform="translate(0,0)"></path>
<path d="M 689.224 642.788 C 690.407 630.074 714.845 611.995 728.025 609.662 C 716.568 619.723 700.989 632.864 689.224 642.788 z" fill="rgb(23,1,122)" transform="translate(0,0)"></path>
<path d="M 1216.01 765.293 C 1218.13 763.703 1233.65 758.629 1237.3 757.126 C 1254.65 750 1269.36 740.835 1287.99 737.442 C 1291.95 736.721 1295.13 734.835 1299.82 734.606 C 1387.5 771.747 1433.97 845.724 1444.31 938.595 C 1446.06 951.208 1448.69 984.967 1446.49 996.676 C 1442.65 1046.68 1422.47 1095.9 1406.52 1143.14 C 1402.94 1153.71 1398.98 1164.88 1394.74 1175.2 L 1394.42 1176.11 C 1377.89 1210.36 1360.82 1234.3 1341.02 1266.06 C 1324.6 1292.39 1311.58 1323.2 1294.82 1350.63 C 1251.15 1422.11 1186 1496.42 1112.14 1537.7 C 1109.68 1540.37 1100.67 1571.32 1098.37 1577.43 C 1071.92 1647.67 1029.96 1718.72 962.518 1756.11 C 920.661 1779.32 873.578 1786.92 827.534 1773.29 C 781.774 1759.7 743.365 1728.35 720.894 1686.23 C 697.871 1643.37 692.857 1593.1 706.96 1546.53 C 725.255 1485.4 773.635 1432.54 829.98 1402.98 C 850.624 1392.15 879.86 1383.83 900.953 1372.22 L 901.968 1371.65 C 911.067 1369.89 964.558 1343.51 967.282 1337.14 C 967.963 1337.26 968.643 1337.39 969.323 1337.52 C 1012.59 1312 1065.51 1271.24 1070.07 1217.52 C 1073.44 1177.95 1051.9 1131.09 1027.25 1101.2 C 1026.47 1099.64 1026.43 1099.82 1024.7 1099.1 C 1024 1097.73 1022.64 1093.97 1022.01 1092.36 C 1030.95 1087.15 1034.19 1077.08 1037.08 1067.72 C 1043.03 1043.12 1041.9 1026.82 1045.92 1004.29 C 1054.48 956.372 1073.64 916.496 1101.57 877.412 L 1102.24 876.899 C 1109.89 865.731 1125.52 847.107 1134.96 837.792 L 1134.95 837.21 L 1153.65 818.234 C 1166.12 805.986 1184.79 788.851 1199.1 778.731 C 1204.94 774.355 1210.27 769.752 1216.01 765.293 z" fill="rgb(202,176,220)" transform="translate(0,0)"></path>
<path d="M 1216.01 765.293 C 1218.13 763.703 1233.65 758.629 1237.3 757.126 C 1254.65 750 1269.36 740.835 1287.99 737.442 C 1291.95 736.721 1295.13 734.835 1299.82 734.606 C 1387.5 771.747 1433.97 845.724 1444.31 938.595 C 1446.06 951.208 1448.69 984.967 1446.49 996.676 C 1442.65 1046.68 1422.47 1095.9 1406.52 1143.14 C 1402.94 1153.71 1398.98 1164.88 1394.74 1175.2 L 1394.42 1176.11 C 1377.89 1210.36 1360.82 1234.3 1341.02 1266.06 C 1324.6 1292.39 1311.58 1323.2 1294.82 1350.63 C 1251.15 1422.11 1186 1496.42 1112.14 1537.7 C 1111.88 1532.04 1119.08 1508.57 1120.51 1500.65 C 1125.62 1472.48 1130.13 1445.96 1130.58 1417.21 C 1130.69 1410 1127.87 1377.17 1130.01 1373.54 C 1128.88 1371.78 1128.5 1366.51 1128.04 1363.83 L 1127.92 1363.21 C 1120.94 1337.3 1119.96 1291.49 1113.69 1264.99 L 1115.14 1263.71 C 1112.49 1257.66 1113.51 1233.23 1113.97 1225.96 C 1115.56 1200.6 1125.66 1176.81 1133.45 1152.9 C 1139.34 1135.05 1144.41 1116.93 1148.64 1098.6 C 1160.85 1044.65 1166.9 984.37 1144.69 931.952 C 1135.45 910.136 1119.17 893.026 1102.24 876.899 C 1109.89 865.731 1125.52 847.107 1134.96 837.792 L 1134.95 837.21 L 1153.65 818.234 C 1166.12 805.986 1184.79 788.851 1199.1 778.731 C 1204.94 774.355 1210.27 769.752 1216.01 765.293 z" fill="none" transform="translate(0,0)"></path>
<path d="M 1115.14 1263.71 C 1132.03 1249.66 1150.88 1237.42 1167.96 1223.45 C 1223.92 1177.71 1263.52 1120.2 1270.23 1046.36 C 1273.49 1010.66 1269.01 975.777 1265.54 940.27 C 1261.39 897.75 1246.82 863.741 1266.82 822.714 C 1287.69 779.912 1337.7 773.964 1367.06 810.964 C 1412.67 868.455 1389.21 947.884 1361.4 1008.16 C 1348.43 1035.84 1333.95 1062.79 1318.03 1088.87 C 1307.98 1105.11 1297.05 1120.79 1286.95 1137.2 C 1252.17 1193.69 1218.23 1251.39 1178.08 1304.27 C 1163.59 1323.35 1145.35 1346.74 1127.92 1363.21 C 1120.94 1337.3 1119.96 1291.49 1113.69 1264.99 L 1115.14 1263.71 z" fill="rgb(77,123,230)" transform="translate(0,0)"></path>
<path d="M 1444.31 938.595 C 1446.06 951.208 1448.69 984.967 1446.49 996.676 C 1442.65 1046.68 1422.47 1095.9 1406.52 1143.14 C 1402.94 1153.71 1398.98 1164.88 1394.74 1175.2 L 1394.42 1176.11 C 1377.89 1210.36 1360.82 1234.3 1341.02 1266.06 C 1324.6 1292.39 1311.58 1323.2 1294.82 1350.63 C 1251.15 1422.11 1186 1496.42 1112.14 1537.7 C 1111.88 1532.04 1119.08 1508.57 1120.51 1500.65 C 1125.62 1472.48 1130.13 1445.96 1130.58 1417.21 C 1130.69 1410 1127.87 1377.17 1130.01 1373.54 C 1133.96 1374.39 1137.88 1374.8 1141.91 1375.02 C 1173.38 1376.73 1205.34 1361.23 1230.71 1344 C 1398.19 1230.29 1322.24 1046.86 1444.31 938.595 z" fill="rgb(77,123,230)" transform="translate(0,0)"></path>
<path d="M 1394.74 1175.2 C 1374.21 1137.37 1379.95 1109.85 1390.55 1069.28 C 1395.62 1049.91 1416.02 981.91 1445.66 994.389 L 1446.49 996.676 C 1442.65 1046.68 1422.47 1095.9 1406.52 1143.14 C 1402.94 1153.71 1398.98 1164.88 1394.74 1175.2 z" fill="rgb(56,52,211)" transform="translate(0,0)"></path>
<path d="M 1199.1 778.731 C 1240.86 841.33 1241.13 906.761 1227.99 978.308 C 1216.81 1039.17 1179.24 1131.45 1138.42 1178.72 C 1137.14 1175.74 1137.51 1175.04 1138.02 1171.68 L 1138.25 1169.73 C 1141.77 1158.15 1147.83 1143.66 1151.9 1131.54 C 1158.52 1111.29 1163.73 1090.62 1167.5 1069.66 C 1180.68 998.298 1176.96 898.664 1134.96 837.792 L 1134.95 837.21 L 1153.65 818.234 C 1166.12 805.986 1184.79 788.851 1199.1 778.731 z" fill="rgb(249,117,154)" transform="translate(0,0)"></path>
<path d="M 1129.24 1189.94 C 1131.71 1184.1 1135.37 1175.29 1138.25 1169.73 L 1138.02 1171.68 C 1137.51 1175.04 1137.14 1175.74 1138.42 1178.72 C 1136.08 1182.52 1132.24 1186.5 1129.24 1189.94 z" fill="rgb(239,147,173)" transform="translate(0,0)"></path>
<path d="M 1113.69 1264.99 C 1119.96 1291.49 1120.94 1337.3 1127.92 1363.21 L 1128.04 1363.83 L 1120.42 1370.44 C 1098.73 1359.92 1080.64 1344.45 1081.67 1317.62 C 1082.55 1294.65 1097.56 1279.3 1113.69 1264.99 z" fill="rgb(56,52,211)" transform="translate(0,0)"></path>
<path d="M 1345.09 697.63 L 1346.26 697.27 C 1362.78 692.037 1375.08 681.015 1382.71 665.999 C 1408.19 615.811 1372.2 566.619 1343.32 526.964 C 1313.75 486.377 1307.63 418.506 1367.12 400.609 C 1420.43 384.572 1471.73 412.736 1512.05 445.752 C 1587.28 503.852 1665.46 587.38 1693.95 679.538 C 1702.27 706.334 1705.82 734.38 1704.46 762.403 C 1701.99 806.624 1692.42 830.644 1699.82 879.075 C 1704.52 910.362 1716.62 940.076 1735.11 965.747 C 1742.58 976.163 1751.27 985.972 1757.93 996.742 C 1788.92 1046.91 1786.14 1095.75 1758.32 1146.63 C 1734.48 1190.24 1709.95 1204.85 1692.72 1255.08 C 1676.46 1296.91 1685.9 1340.43 1676.45 1383.02 C 1659.13 1461.02 1613.07 1521.42 1553.86 1573.63 C 1512.86 1609.78 1439.22 1653.61 1410.92 1575.36 C 1397.3 1537.72 1420.9 1484.15 1439.72 1449.94 C 1462.21 1409.56 1490.16 1372.49 1522.78 1339.76 C 1544.94 1317.1 1570.96 1298.88 1592.17 1278.05 C 1643.49 1227.64 1718.61 1154.79 1703.95 1076.17 C 1702.82 1069.96 1696.27 1060.48 1690.69 1057.68 C 1659.72 1042.13 1619.65 1102.1 1602.68 1122.47 C 1585.52 1143.19 1567.74 1163.38 1549.34 1183.01 C 1564.77 1142.56 1584.97 1098.12 1586.9 1054.09 L 1587.19 1052.94 C 1586.88 1000.31 1567.9 930.572 1507.02 919.916 C 1490.75 917.068 1477.11 921.511 1462.02 927.197 C 1462.02 951.348 1460.33 979.792 1460.77 1002.52 C 1456.46 1055.76 1446.8 1105.68 1427.05 1155.54 C 1423.48 1164.57 1416.17 1187.04 1404.98 1187.84 C 1400.24 1185.73 1397.54 1180.58 1394.42 1176.11 L 1394.74 1175.2 C 1398.98 1164.88 1402.94 1153.71 1406.52 1143.14 C 1422.47 1095.9 1442.65 1046.68 1446.49 996.676 C 1448.69 984.967 1446.06 951.208 1444.31 938.595 C 1433.97 845.724 1387.5 771.747 1299.82 734.606 C 1318.27 724.643 1333.07 715.585 1345.09 697.63 z" fill="rgb(249,117,154)" transform="translate(0,0)"></path>
<path d="M 1462.02 927.197 L 1457.51 841.463 C 1456.01 813.053 1445.07 714.939 1491.98 713.273 C 1517.76 712.358 1549.86 742.595 1566.71 759.767 C 1600.77 795.084 1653.94 856.139 1653.03 906.961 C 1651.84 972.966 1621.45 1004.98 1587.19 1052.94 C 1586.88 1000.31 1567.9 930.572 1507.02 919.916 C 1490.75 917.068 1477.11 921.511 1462.02 927.197 z" fill="none" transform="translate(0,0)"></path>
<path d="M 1462.02 927.197 C 1477.11 921.511 1490.75 917.068 1507.02 919.916 C 1567.9 930.572 1586.88 1000.31 1587.19 1052.94 L 1586.9 1054.09 C 1584.97 1098.12 1564.77 1142.56 1549.34 1183.01 L 1547.2 1186.8 C 1527.64 1231.8 1502.54 1274.19 1472.48 1312.98 C 1469.03 1317.41 1465.55 1321.76 1461.92 1326.04 C 1433.55 1359.52 1404.57 1394.4 1382.38 1432.4 C 1367.83 1457.13 1355.41 1483.05 1345.26 1509.88 C 1337.71 1529.8 1331.78 1551.81 1324.63 1572.31 C 1302.86 1634.66 1274.38 1698.3 1224.05 1743.02 C 1198.21 1765.95 1167.37 1781.43 1132.52 1779.87 C 1091.11 1778.03 1063.43 1738.44 1068.89 1698.6 C 1080.94 1610.71 1181.59 1551.32 1246.34 1502.56 C 1280.27 1477 1310.41 1451.48 1338.55 1420.05 C 1359.65 1396.48 1374.49 1371.66 1390.45 1345.41 C 1437.56 1267.95 1472.33 1184 1479.88 1092.96 C 1482.55 1061.61 1481.84 1027.73 1460.77 1002.52 C 1460.33 979.792 1462.02 951.348 1462.02 927.197 z" fill="rgb(77,123,230)" transform="translate(0,0)"></path>
<path d="M 1547.2 1186.8 C 1531.67 1198.28 1522.1 1215.18 1501.59 1220.39 C 1494.06 1222.3 1468.98 1229.18 1467.58 1216.06 C 1467.27 1213.2 1472.87 1204.01 1474.86 1201.15 C 1500.64 1164.31 1528.29 1128.62 1555.79 1093.03 C 1561.03 1086.26 1581.87 1058.57 1586.9 1054.09 C 1584.97 1098.12 1564.77 1142.56 1549.34 1183.01 L 1547.2 1186.8 z" fill="rgb(56,52,211)" transform="translate(0,0)"></path>
<path d="M 761.068 1149.76 C 765.435 1165.26 768.768 1184.32 773.557 1201.63 L 787.727 1252.25 C 796.663 1283.98 808.558 1320.2 795.644 1352.25 C 789.593 1367.39 779.203 1380.54 763.648 1386.77 C 717.495 1405.24 677.688 1364.97 661.847 1325.37 C 636.458 1261.91 642.648 1193.27 660.383 1128.92 C 663.909 1116.12 667.904 1101.52 672.926 1089.4 C 694.426 1120.16 722.02 1144.65 760.787 1149.09 L 761.068 1149.76 z" fill="rgb(77,123,230)" transform="translate(0,0)"></path>
<path d="M 901.968 1371.65 C 788.969 1328.18 785.295 1197.74 915.548 1185.29 C 945.196 1182.46 991.29 1193 1013.52 1213.91 C 1047 1245.38 1008.66 1266.9 986.906 1286.67 C 972.327 1300.44 966.834 1317.98 967.282 1337.14 C 964.558 1343.51 911.067 1369.89 901.968 1371.65 z" fill="rgb(249,117,154)" transform="translate(0,0)"></path>
<path d="M 1174.95 294.296 C 1229.63 288.727 1293.85 327.801 1301.22 384.465 C 1306.13 422.228 1278.5 443.636 1244.14 446.445 C 1196.69 447.199 1127.41 409.667 1116.78 360.537 C 1108.31 321.355 1141.72 299.577 1174.95 294.296 z" fill="rgb(249,117,154)" transform="translate(0,0)"></path>
<metadata><recraft-signature>{"signed_by": "recraft", "signature_b64": "2dVpMMvJScfQFf9AD+JvQSNialO9x3ouUIfWJR7K2YXhu8VQ5hMzUyx6+p5vkXTadEDx8iAWxrr72oPYmRSbCg==", "signing_algo": "Ed25519", "generation_timestamp": 1773854554, "identifier": "da61a45e-a820-4101-924a-2ab27b6231f4"}</recraft-signature></metadata></svg>