<svg xmlns="http://www.w3.org/2000/svg" height="2048" preserveAspectRatio="none" style="display: block;" version="1.1" viewBox="100 120 1800 1800" width="2048"><g transform="translate(2000,0) scale(-1,1)">
<defs>
	<linearGradient gradientUnits="userSpaceOnUse" id="Gradient1" x1="1151.86" x2="1300.64" y1="888.005" y2="634.111">
		<stop class="stop0" offset="0" stop-color="rgb(231,153,211)" stop-opacity="1"></stop>
		<stop class="stop1" offset="1" stop-color="rgb(202,127,238)" stop-opacity="1"></stop>
	</linearGradient>
	<linearGradient gradientUnits="userSpaceOnUse" id="Gradient2" x1="1192.53" x2="1265.37" y1="908.148" y2="551.989">
		<stop class="stop0" offset="0" stop-color="rgb(240,164,210)" stop-opacity="1"></stop>
		<stop class="stop1" offset="1" stop-color="rgb(202,127,236)" stop-opacity="1"></stop>
	</linearGradient>
	<linearGradient gradientUnits="userSpaceOnUse" id="Gradient3" x1="864.367" x2="1053.08" y1="1211.66" y2="1485.1">
		<stop class="stop0" offset="0" stop-color="rgb(205,68,187)" stop-opacity="1"></stop>
		<stop class="stop1" offset="1" stop-color="rgb(174,55,192)" stop-opacity="1"></stop>
	</linearGradient>
</defs>
<path d="M 377.991 738.898 L 377.971 599.678 C 377.968 576.071 377.479 552.392 378.173 528.801 C 380.411 452.726 441.255 421.005 495.977 383.899 L 624.785 296.335 L 765.037 200.983 C 788.846 184.755 813.717 167.13 838.233 151.993 C 848.947 145.378 863.861 141.312 876.613 142.251 C 882.763 142.756 888.794 144.236 894.479 146.636 C 921.696 157.9 954.105 180.572 981.123 194.09 C 992.047 199.556 1001.93 216.497 1003.77 228.723 C 1006.46 246.567 1005.07 266.433 1005.47 284.592 C 1005.11 311.192 1006.89 339.638 1003.75 365.905 L 1004.47 366.277 C 1003.86 366.847 1020.28 334.136 1022.34 330.729 C 1032.07 314.811 1043.65 300.099 1056.84 286.901 C 1113.75 229.531 1219.69 185.562 1285.96 252.589 L 1287.53 253.226 C 1319.04 265.812 1326.94 275.255 1345.19 302.744 C 1371.7 284.833 1395.99 269.094 1430.03 275.564 C 1453.87 280.251 1474.82 294.345 1488.14 314.663 C 1513.01 351.908 1506.85 400.103 1507.09 443.009 C 1507.34 488.901 1507.46 535.724 1506.83 581.597 C 1517.5 574.216 1548.03 551.271 1558.96 550.403 C 1576.59 549.002 1613.33 570.604 1624.77 583.9 C 1630.98 591.109 1628.61 630.087 1628.65 639.352 C 1643.98 628.851 1678.95 600.598 1697.32 607.49 C 1721.11 616.418 1748.35 634.836 1771.15 647.459 C 1781.22 653.033 1785.37 663.984 1785.7 674.901 C 1786.31 694.976 1786.06 715.073 1786.06 735.151 L 1785.94 851.049 C 1801.11 844.35 1813.99 839.649 1830.78 845.862 C 1841.87 849.905 1850.82 858.315 1855.55 869.132 C 1875.65 915.103 1814.75 936.66 1785.85 958.142 C 1786.59 986.248 1786 1014.97 1786.03 1043.28 C 1786.08 1098.59 1791.88 1144.92 1750.71 1189.29 C 1738.06 1202.93 1719.83 1213.69 1704.13 1224.14 L 1704.27 1304.12 C 1704.32 1320.5 1706.15 1340.69 1700.62 1355.82 C 1691.52 1395.74 1673.72 1433.3 1640.5 1458.39 C 1595.8 1492.16 1546.12 1521.36 1500.8 1554.25 C 1500.85 1603.81 1505.35 1640.03 1466.92 1679.37 C 1455.66 1690.89 1431.49 1705.99 1417.28 1715.66 L 1338.98 1768.9 L 1238.57 1837.31 C 1219.38 1850.47 1199.19 1865.17 1179.89 1876.93 C 1154.6 1892.33 1135 1867.42 1137.69 1842.56 C 1138.6 1834.1 1137.79 1819.73 1137.82 1810.9 C 1104.52 1833.18 1071.38 1855.68 1038.4 1878.41 C 1027.63 1885.76 982.528 1920.1 971.102 1915.68 C 942.995 1904.81 913.661 1884.64 886.688 1870.01 C 868.962 1860.4 868.69 1836.42 868.991 1819.43 C 860.247 1821.76 851.394 1823.66 842.463 1825.12 C 779.03 1835.26 714.172 1819.75 662.19 1782.01 C 609.231 1743.46 573.581 1682.88 567.968 1617.3 C 566.581 1601.09 569.568 1574.11 566.908 1560.23 C 517.33 1591.59 511.341 1597.99 457.982 1567.71 C 451.053 1571 436.797 1581.05 429.831 1585.73 L 385.034 1615.61 C 371.271 1624.73 357.149 1636.5 339.73 1632.41 C 298.633 1622.4 310.953 1571.42 309.218 1540.51 C 308.449 1526.8 309.816 1511.82 309.108 1498.37 C 305.684 1433.4 323.772 1404.54 377.987 1370.09 L 377.944 1172.61 C 344.749 1193.5 313.102 1217.68 279.966 1238.73 C 275.276 1241.71 268.788 1241.13 264.614 1243.59 C 248.773 1252.93 237.123 1267 216.911 1263.67 C 207.88 1262.18 199.829 1257.12 194.569 1249.63 C 184.324 1235.34 186.225 1210.84 186.196 1193.82 L 186.191 1140.28 L 186.253 1081.37 C 186.32 1056.53 184.789 1039.2 195.44 1016.2 C 207.221 990.769 223.663 981.334 245.848 966.196 C 242.791 890.459 240.496 838.419 306.242 788.288 C 327.103 772.382 359.673 755.598 377.991 738.898 z" fill="none" transform="translate(0,0)"></path>
<path d="M 1003.75 365.905 L 1004.47 366.277 C 1003.86 366.847 1020.28 334.136 1022.34 330.729 C 1032.07 314.811 1043.65 300.099 1056.84 286.901 C 1113.75 229.531 1219.69 185.562 1285.96 252.589 L 1287.53 253.226 C 1319.04 265.812 1326.94 275.255 1345.19 302.744 L 1346.45 306.928 C 1346.72 307.177 1346.98 307.426 1347.24 307.676 C 1350.96 314.76 1353.32 322.698 1354.96 330.503 C 1352.36 329.27 1349.81 327.85 1347.26 326.683 C 1348.78 322.488 1344.47 314.855 1342.58 310.044 C 1338.95 312.464 1328.89 318.017 1328.11 321.539 C 1323.68 321.23 1321.17 321.072 1316.71 321.048 C 1313.64 322.062 1309.54 322.55 1306.21 323.305 C 1304.48 323.867 1302.71 324.199 1300.94 324.619 C 1278.73 333.43 1223.99 372.812 1201.54 388.05 L 1037.37 499.862 L 1031.95 503.7 L 1003.35 523.114 C 1002.59 514.554 1003.05 499.035 1003.04 490.072 L 1003.02 428.732 C 1003.02 421.227 1002.77 370.165 1003.75 365.905 z" fill="none" transform="translate(0,0)"></path>
<path d="M 1003.75 365.905 L 1004.47 366.277 C 1003.86 366.847 1020.28 334.136 1022.34 330.729 C 1032.07 314.811 1043.65 300.099 1056.84 286.901 C 1113.75 229.531 1219.69 185.562 1285.96 252.589 C 1281.8 251.492 1278.29 250.281 1274.28 249.11 C 1271.45 249.026 1268.62 248.896 1265.79 248.722 C 1254.87 245.409 1228.11 249.514 1217.01 252.602 C 1134.95 275.416 1065.45 355.553 1041.56 435.257 C 1034.82 457.433 1031.58 480.525 1031.95 503.7 L 1003.35 523.114 C 1002.59 514.554 1003.05 499.035 1003.04 490.072 L 1003.02 428.732 C 1003.02 421.227 1002.77 370.165 1003.75 365.905 z" fill="none" transform="translate(0,0)"></path>
<path d="M 1003.75 365.905 L 1004.47 366.277 C 1003.86 366.847 1020.28 334.136 1022.34 330.729 C 1032.07 314.811 1043.65 300.099 1056.84 286.901 C 1113.75 229.531 1219.69 185.562 1285.96 252.589 C 1281.8 251.492 1278.29 250.281 1274.28 249.11 C 1201.18 190.325 1091.28 247.54 1042.57 311.571 C 1026.16 333.134 1012.79 356.596 1005 382.828 C 1002.62 391.164 1003.71 421.342 1003.65 431.913 C 1003.46 462.166 1004.27 492.785 1003.35 523.114 C 1002.59 514.554 1003.05 499.035 1003.04 490.072 L 1003.02 428.732 C 1003.02 421.227 1002.77 370.165 1003.75 365.905 z" fill="rgb(242,88,164)" transform="translate(0,0)"></path>
<path d="M 1031.95 503.7 C 1031.58 480.525 1034.82 457.433 1041.56 435.257 C 1065.45 355.553 1134.95 275.416 1217.01 252.602 C 1228.11 249.514 1254.87 245.409 1265.79 248.722 C 1269.24 250.721 1292.11 254.597 1287.56 256.685 L 1287.55 256.661 C 1283.23 257.43 1273.01 250.885 1265.87 253.429 C 1253.45 254.316 1240.13 253.082 1227.85 255.946 C 1121.52 280.74 1039.32 393.696 1037.37 499.862 L 1031.95 503.7 z" fill="rgb(156,105,225)" transform="translate(0,0)"></path>
<path d="M 1265.79 248.722 C 1268.62 248.896 1271.45 249.026 1274.28 249.11 C 1278.29 250.281 1281.8 251.492 1285.96 252.589 L 1287.53 253.226 C 1319.04 265.812 1326.94 275.255 1345.19 302.744 L 1346.45 306.928 C 1346.72 307.177 1346.98 307.426 1347.24 307.676 C 1350.96 314.76 1353.32 322.698 1354.96 330.503 C 1352.36 329.27 1349.81 327.85 1347.26 326.683 C 1348.78 322.488 1344.47 314.855 1342.58 310.044 C 1338.95 312.464 1328.89 318.017 1328.11 321.539 C 1323.68 321.23 1321.17 321.072 1316.71 321.048 C 1313.64 322.062 1309.54 322.55 1306.21 323.305 C 1306.97 290.926 1305.1 289.396 1293.23 261.281 C 1289.46 259.197 1287.07 258.695 1282.98 257.538 C 1282.46 257.409 1281.95 257.286 1281.43 257.169 C 1276.39 256.04 1270.69 255.101 1265.87 253.429 C 1273.01 250.885 1283.23 257.43 1287.55 256.661 L 1287.56 256.685 C 1292.11 254.597 1269.24 250.721 1265.79 248.722 z" fill="none" transform="translate(0,0)"></path>
<path d="M 1265.79 248.722 C 1268.62 248.896 1271.45 249.026 1274.28 249.11 C 1278.29 250.281 1281.8 251.492 1285.96 252.589 L 1287.53 253.226 C 1319.04 265.812 1326.94 275.255 1345.19 302.744 L 1346.45 306.928 C 1346.72 307.177 1346.98 307.426 1347.24 307.676 C 1350.96 314.76 1353.32 322.698 1354.96 330.503 C 1352.36 329.27 1349.81 327.85 1347.26 326.683 C 1348.78 322.488 1344.47 314.855 1342.58 310.044 L 1341.68 307.866 C 1341.21 307.296 1340.73 306.726 1340.25 306.157 C 1331.7 286.835 1311.98 270.223 1293.23 261.281 C 1289.46 259.197 1287.07 258.695 1282.98 257.538 C 1282.46 257.409 1281.95 257.286 1281.43 257.169 C 1276.39 256.04 1270.69 255.101 1265.87 253.429 C 1273.01 250.885 1283.23 257.43 1287.55 256.661 L 1287.56 256.685 C 1292.11 254.597 1269.24 250.721 1265.79 248.722 z" fill="rgb(141,58,208)" transform="translate(0,0)"></path>
<path d="M 1340.25 306.157 C 1340.73 306.726 1341.21 307.296 1341.68 307.866 L 1342.58 310.044 C 1338.95 312.464 1328.89 318.017 1328.11 321.539 C 1323.68 321.23 1321.17 321.072 1316.71 321.048 C 1322.19 317.125 1334.67 308.712 1340.25 306.157 z" fill="rgb(242,88,164)" transform="translate(0,0)"></path>
<path d="M 1282.98 257.538 C 1287.07 258.695 1289.46 259.197 1293.23 261.281 C 1305.1 289.396 1306.97 290.926 1306.21 323.305 C 1304.48 323.867 1302.71 324.199 1300.94 324.619 C 1301.07 295.531 1299.91 282.044 1282.98 257.538 z" fill="rgb(242,88,164)" transform="translate(0,0)"></path>
<path d="M 572.798 1556.16 C 586.378 1546.58 602.269 1536.7 615.13 1527.12 C 614.842 1592.26 607.616 1639.16 658.239 1690.69 C 705.639 1738.95 778.254 1757 844.312 1756.98 C 852.548 1756.91 860.782 1756.72 869.011 1756.38 L 869.014 1813.61 L 868.991 1819.43 C 860.247 1821.76 851.394 1823.66 842.463 1825.12 C 779.03 1835.26 714.172 1819.75 662.19 1782.01 C 609.231 1743.46 573.581 1682.88 567.968 1617.3 C 566.581 1601.09 569.568 1574.11 566.908 1560.23 L 572.798 1556.16 z" fill="none" transform="translate(0,0)"></path>
<path d="M 572.798 1556.16 C 572.743 1574.66 571.956 1601.59 573.661 1619.38 C 578.957 1670.05 601.602 1717.34 637.763 1753.24 C 683.337 1798.99 740.948 1822.85 805.444 1822.22 C 826.601 1822.01 848.702 1819.78 869.014 1813.61 L 868.991 1819.43 C 860.247 1821.76 851.394 1823.66 842.463 1825.12 C 779.03 1835.26 714.172 1819.75 662.19 1782.01 C 609.231 1743.46 573.581 1682.88 567.968 1617.3 C 566.581 1601.09 569.568 1574.11 566.908 1560.23 L 572.798 1556.16 z" fill="rgb(156,105,225)" transform="translate(0,0)"></path>
<path d="M 1345.19 302.744 C 1371.7 284.833 1395.99 269.094 1430.03 275.564 C 1453.87 280.251 1474.82 294.345 1488.14 314.663 C 1513.01 351.908 1506.85 400.103 1507.09 443.009 C 1507.34 488.901 1507.46 535.724 1506.83 581.597 L 1502.03 584.909 C 1485.11 596.62 1468.12 608.231 1451.05 619.742 L 1451.06 475.493 C 1451.07 454.307 1451.27 433.01 1450.95 411.835 C 1450.43 378.215 1428.57 370.896 1403.44 357.136 L 1354.96 330.503 C 1353.32 322.698 1350.96 314.76 1347.24 307.676 C 1346.98 307.426 1346.72 307.177 1346.45 306.928 L 1345.19 302.744 z" fill="none" transform="translate(0,0)"></path>
<path d="M 1345.19 302.744 C 1371.7 284.833 1395.99 269.094 1430.03 275.564 C 1453.87 280.251 1474.82 294.345 1488.14 314.663 C 1513.01 351.908 1506.85 400.103 1507.09 443.009 C 1507.34 488.901 1507.46 535.724 1506.83 581.597 L 1502.03 584.909 C 1500.86 535.052 1502.35 484.733 1501.72 434.651 C 1501.36 386.01 1507.77 328.659 1462.77 295.946 C 1420.77 265.406 1384.88 282.234 1347.24 307.676 C 1346.98 307.426 1346.72 307.177 1346.45 306.928 L 1345.19 302.744 z" fill="rgb(242,88,164)" transform="translate(0,0)"></path>
<path d="M 377.987 1370.09 L 377.97 1376.63 L 377.982 1447.36 C 377.985 1528.21 381.401 1526.44 451.804 1564.41 L 457.982 1567.71 C 451.053 1571 436.797 1581.05 429.831 1585.73 L 385.034 1615.61 C 371.271 1624.73 357.149 1636.5 339.73 1632.41 C 298.633 1622.4 310.953 1571.42 309.218 1540.51 C 308.449 1526.8 309.816 1511.82 309.108 1498.37 C 305.684 1433.4 323.772 1404.54 377.987 1370.09 z" fill="none" transform="translate(0,0)"></path>
<path d="M 377.987 1370.09 L 377.97 1376.63 C 330.507 1408.25 310.433 1435.51 314.649 1495.58 C 316.388 1520.37 308.984 1595.83 321.565 1613.83 C 326.637 1621.1 334.443 1625.98 343.19 1627.38 C 359.088 1629.8 379.577 1612.63 392.775 1603.85 L 451.804 1564.41 L 457.982 1567.71 C 451.053 1571 436.797 1581.05 429.831 1585.73 L 385.034 1615.61 C 371.271 1624.73 357.149 1636.5 339.73 1632.41 C 298.633 1622.4 310.953 1571.42 309.218 1540.51 C 308.449 1526.8 309.816 1511.82 309.108 1498.37 C 305.684 1433.4 323.772 1404.54 377.987 1370.09 z" fill="rgb(242,88,164)" transform="translate(0,0)"></path>
<path d="M 377.991 738.898 L 377.97 746.043 L 377.903 877.136 L 295.287 932.883 C 281.478 942.242 264.888 954.124 250.972 962.764 L 245.848 966.196 C 242.791 890.459 240.496 838.419 306.242 788.288 C 327.103 772.382 359.673 755.598 377.991 738.898 z" fill="none" transform="translate(0,0)"></path>
<path d="M 377.991 738.898 L 377.97 746.043 C 316.233 787.329 247.446 823.267 250.578 907.152 C 251.216 924.249 249.063 946.275 250.972 962.764 L 245.848 966.196 C 242.791 890.459 240.496 838.419 306.242 788.288 C 327.103 772.382 359.673 755.598 377.991 738.898 z" fill="rgb(242,88,164)" transform="translate(0,0)"></path>
<path d="M 1698.67 1227.95 L 1704.13 1224.14 L 1704.27 1304.12 C 1704.32 1320.5 1706.15 1340.69 1700.62 1355.82 C 1700.51 1352.08 1699.91 1350.16 1699.04 1346.58 C 1698.59 1350.3 1698.02 1354 1697.33 1357.68 C 1687.7 1408.76 1661.72 1441.71 1619.94 1470.18 L 1620 1281.61 C 1646.01 1263.41 1672.23 1245.52 1698.67 1227.95 z" fill="none" transform="translate(0,0)"></path>
<path d="M 1698.67 1227.95 L 1704.13 1224.14 L 1704.27 1304.12 C 1704.32 1320.5 1706.15 1340.69 1700.62 1355.82 C 1700.51 1352.08 1699.91 1350.16 1699.04 1346.58 C 1697.93 1340.05 1698.95 1322.33 1698.71 1314.71 C 1697.86 1287.9 1700.64 1254.01 1698.67 1227.95 z" fill="rgb(156,105,225)" transform="translate(0,0)"></path>
<path d="M 1785.94 851.049 C 1801.11 844.35 1813.99 839.649 1830.78 845.862 C 1841.87 849.905 1850.82 858.315 1855.55 869.132 C 1875.65 915.103 1814.75 936.66 1785.85 958.142 L 1785.9 950.864 C 1786.99 923.049 1786.21 886.361 1785.99 857.727 L 1785.94 851.049 z" fill="none" transform="translate(0,0)"></path>
<path d="M 1785.94 851.049 C 1801.11 844.35 1813.99 839.649 1830.78 845.862 C 1841.87 849.905 1850.82 858.315 1855.55 869.132 C 1875.65 915.103 1814.75 936.66 1785.85 958.142 L 1785.9 950.864 C 1804.06 939.213 1823.9 928.008 1840.84 914.827 C 1853.55 904.933 1856.55 885.757 1850.23 871.428 C 1846.09 861.9 1838.27 854.449 1828.56 850.765 C 1812.58 844.657 1800.15 851.134 1785.99 857.727 L 1785.94 851.049 z" fill="rgb(156,105,225)" transform="translate(0,0)"></path>
<path d="M 1328.11 321.539 C 1328.89 318.017 1338.95 312.464 1342.58 310.044 C 1344.47 314.855 1348.78 322.488 1347.26 326.683 C 1340.52 323.786 1335.4 322.448 1328.11 321.539 z" fill="none" transform="translate(0,0)"></path>
<path d="M 1775.9 690.502 C 1778.21 688.637 1780.83 686.421 1783.19 684.697 L 1783.03 799.408 C 1782.99 838.087 1784.28 882.945 1783.02 921.125 C 1783.28 931.557 1782.89 942.125 1783.25 952.499 L 1783.25 959.809 L 1783.07 1050.22 C 1783.08 1105.14 1788.82 1146.48 1745.72 1190.77 C 1732.88 1203.96 1700.3 1223.6 1683.66 1234.8 C 1656.73 1252.94 1626.84 1275.14 1598.91 1290.87 C 1577.78 1304.65 1553.94 1306.07 1529.22 1303.01 C 1507.11 1300.14 1492.08 1294.54 1472.35 1284.65 C 1469.36 1283.22 1461.46 1278.28 1458.27 1276.39 C 1457.56 1276.09 1457.34 1276.15 1457.05 1275.53 C 1451.05 1271.41 1444.97 1266.6 1439.15 1262.16 C 1436.78 1261.25 1436.64 1260.55 1435.04 1258.52 L 1428.06 1251.75 C 1416.83 1240.14 1406.64 1227.32 1399.26 1212.89 L 1396.78 1208.15 C 1374.84 1160.2 1377.11 1120.96 1377.52 1070.03 C 1377.66 1052.54 1376.93 1036.42 1380.16 1019.02 C 1385 991.42 1397.48 965.733 1416.18 944.867 C 1430.52 928.932 1449.2 917.043 1466.77 904.803 L 1519.21 868.379 L 1678.49 758.195 C 1680.2 756.428 1699.72 742.956 1702.79 740.802 C 1726.89 723.648 1751.26 706.879 1775.9 690.502 z" fill="rgb(242,88,164)" transform="translate(0,0)"></path>
<path d="M 1783.25 952.499 L 1783.25 959.809 L 1783.07 1050.22 C 1783.08 1105.14 1788.82 1146.48 1745.72 1190.77 C 1732.88 1203.96 1700.3 1223.6 1683.66 1234.8 C 1656.73 1252.94 1626.84 1275.14 1598.91 1290.87 C 1577.78 1304.65 1553.94 1306.07 1529.22 1303.01 C 1507.11 1300.14 1492.08 1294.54 1472.35 1284.65 C 1469.36 1283.22 1461.46 1278.28 1458.27 1276.39 C 1457.56 1276.09 1457.34 1276.15 1457.05 1275.53 C 1451.05 1271.41 1444.97 1266.6 1439.15 1262.16 C 1436.78 1261.25 1436.64 1260.55 1435.04 1258.52 L 1428.06 1251.75 C 1416.83 1240.14 1406.64 1227.32 1399.26 1212.89 L 1396.78 1208.15 C 1405.41 1202.54 1474.35 1157.89 1477.48 1153.78 C 1483.08 1152.29 1566.21 1096.04 1570.39 1091.62 C 1578.26 1089.27 1655.01 1038.04 1667.36 1028.9 C 1678.82 1022.05 1756.02 972.392 1760.43 965.81 C 1763.56 967.519 1780.03 955.012 1783.25 952.499 z" fill="rgb(242,88,164)" transform="translate(0,0)"></path>
<path d="M 1754.74 978.399 C 1760.75 973.222 1775.94 964.348 1783.25 959.809 L 1783.07 1050.22 C 1783.08 1105.14 1788.82 1146.48 1745.72 1190.77 C 1732.88 1203.96 1700.3 1223.6 1683.66 1234.8 C 1656.73 1252.94 1626.84 1275.14 1598.91 1290.87 C 1599.52 1285.05 1657.54 1172.77 1664.49 1159.06 C 1695.03 1099.07 1725.11 1038.85 1754.74 978.399 z" fill="rgb(242,88,164)" transform="translate(0,0)"></path>
<path d="M 1661.67 1040.38 C 1665.27 1036.39 1697.68 1015.79 1704.89 1011.17 C 1720.98 1000.88 1738.62 988.429 1754.74 978.399 C 1725.11 1038.85 1695.03 1099.07 1664.49 1159.06 C 1657.54 1172.77 1599.52 1285.05 1598.91 1290.87 C 1577.78 1304.65 1553.94 1306.07 1529.22 1303.01 C 1534.52 1293.78 1540.13 1281.4 1545.03 1271.54 L 1572.57 1216.94 C 1602.57 1158.24 1632.27 1099.39 1661.67 1040.38 z" fill="rgb(91,3,164)" transform="translate(0,0)"></path>
<path d="M 1783.25 952.499 L 1783.25 959.809 C 1775.94 964.348 1760.75 973.222 1754.74 978.399 C 1738.62 988.429 1720.98 1000.88 1704.89 1011.17 C 1697.68 1015.79 1665.27 1036.39 1661.67 1040.38 C 1652.5 1044.97 1570.71 1098.11 1564.72 1104.31 C 1534.02 1162.9 1504.04 1227.33 1472.35 1284.65 C 1469.36 1283.22 1461.46 1278.28 1458.27 1276.39 C 1457.56 1276.09 1457.34 1276.15 1457.05 1275.53 C 1451.05 1271.41 1444.97 1266.6 1439.15 1262.16 C 1436.78 1261.25 1436.64 1260.55 1435.04 1258.52 L 1428.06 1251.75 C 1416.83 1240.14 1406.64 1227.32 1399.26 1212.89 L 1396.78 1208.15 C 1405.41 1202.54 1474.35 1157.89 1477.48 1153.78 C 1483.08 1152.29 1566.21 1096.04 1570.39 1091.62 C 1578.26 1089.27 1655.01 1038.04 1667.36 1028.9 C 1678.82 1022.05 1756.02 972.392 1760.43 965.81 C 1763.56 967.519 1780.03 955.012 1783.25 952.499 z" fill="rgb(91,3,164)" transform="translate(0,0)"></path>
<path d="M 1783.25 952.499 L 1783.25 959.809 C 1775.94 964.348 1760.75 973.222 1754.74 978.399 C 1738.62 988.429 1720.98 1000.88 1704.89 1011.17 C 1697.68 1015.79 1665.27 1036.39 1661.67 1040.38 C 1652.5 1044.97 1570.71 1098.11 1564.72 1104.31 C 1554.95 1109.61 1475.17 1161.64 1470.47 1167.39 C 1466.83 1168.45 1466.17 1169.29 1462.95 1171.39 C 1456.46 1174.7 1443.68 1184.08 1437.12 1188.52 C 1424.77 1197.06 1412.14 1205.19 1399.26 1212.89 L 1396.78 1208.15 C 1405.41 1202.54 1474.35 1157.89 1477.48 1153.78 C 1483.08 1152.29 1566.21 1096.04 1570.39 1091.62 C 1578.26 1089.27 1655.01 1038.04 1667.36 1028.9 C 1678.82 1022.05 1756.02 972.392 1760.43 965.81 C 1763.56 967.519 1780.03 955.012 1783.25 952.499 z" fill="rgb(141,58,208)" transform="translate(0,0)"></path>
<path d="M 1399.26 1212.89 C 1412.14 1205.19 1424.77 1197.06 1437.12 1188.52 C 1443.68 1184.08 1456.46 1174.7 1462.95 1171.39 C 1463.57 1174.71 1463.6 1174.65 1465.6 1177.3 C 1454.27 1199.83 1437.17 1228.83 1428.06 1251.75 C 1416.83 1240.14 1406.64 1227.32 1399.26 1212.89 z" fill="rgb(242,88,164)" transform="translate(0,0)"></path>
<path d="M 1462.95 1171.39 C 1466.17 1169.29 1466.83 1168.45 1470.47 1167.39 C 1468.91 1170.72 1467.28 1174.03 1465.6 1177.3 C 1463.6 1174.65 1463.57 1174.71 1462.95 1171.39 z" fill="rgb(251,122,171)" transform="translate(0,0)"></path>
<path d="M 1435.04 1258.52 L 1436.59 1259.73 C 1437.56 1260.47 1438.44 1261.17 1439.15 1262.16 C 1436.78 1261.25 1436.64 1260.55 1435.04 1258.52 z" fill="none" transform="translate(0,0)"></path>
<path d="M 1678.49 758.195 C 1676.58 768.122 1643.84 827.324 1637.15 840.459 L 1530.94 1048.51 C 1514.09 1081.53 1492.47 1120.56 1477.48 1153.78 C 1474.35 1157.89 1405.41 1202.54 1396.78 1208.15 C 1374.84 1160.2 1377.11 1120.96 1377.52 1070.03 C 1377.66 1052.54 1376.93 1036.42 1380.16 1019.02 C 1385 991.42 1397.48 965.733 1416.18 944.867 C 1430.52 928.932 1449.2 917.043 1466.77 904.803 L 1519.21 868.379 L 1678.49 758.195 z" fill="rgb(242,88,164)" transform="translate(0,0)"></path>
<path d="M 1775.9 690.502 C 1714.66 813.718 1648.45 935.096 1587.61 1058.58 C 1582.21 1069.53 1576.22 1080.89 1570.39 1091.62 C 1566.21 1096.04 1483.08 1152.29 1477.48 1153.78 C 1492.47 1120.56 1514.09 1081.53 1530.94 1048.51 L 1637.15 840.459 C 1643.84 827.324 1676.58 768.122 1678.49 758.195 C 1680.2 756.428 1699.72 742.956 1702.79 740.802 C 1726.89 723.648 1751.26 706.879 1775.9 690.502 z" fill="rgb(91,3,164)" transform="translate(0,0)"></path>
<path d="M 1783.03 799.408 C 1782.99 838.087 1784.28 882.945 1783.02 921.125 C 1783.28 931.557 1782.89 942.125 1783.25 952.499 C 1780.03 955.012 1763.56 967.519 1760.43 965.81 C 1756.02 972.392 1678.82 1022.05 1667.36 1028.9 C 1684.78 992.114 1703.95 955.431 1722.23 919.013 C 1742.1 878.944 1762.37 839.074 1783.03 799.408 z" fill="rgb(91,3,164)" transform="translate(0,0)"></path>
<path d="M 1783.02 921.125 C 1783.28 931.557 1782.89 942.125 1783.25 952.499 C 1780.03 955.012 1763.56 967.519 1760.43 965.81 C 1765.47 955.671 1777.35 929.791 1783.02 921.125 z" fill="rgb(242,88,164)" transform="translate(0,0)"></path>
<path d="M 952.067 1406.16 L 952.036 1315.94 C 951.976 1274.09 948.402 1239.45 967.415 1200.37 C 985.171 1163.87 1005.21 1150.95 1037.29 1128.96 L 1089.83 1093.05 L 1263.78 973.881 L 1582.89 754.441 L 1678.8 688.454 C 1694.55 677.602 1710.38 666.61 1726.21 655.876 C 1753.38 637.449 1783.54 642.347 1783.6 680.377 C 1770.01 693.942 1736.15 714.524 1719.29 726.342 L 1537.58 852.658 L 1479.22 893.157 C 1455.35 909.662 1426.34 927.298 1408.51 949.752 C 1386.78 977.105 1375.73 1010.33 1374.89 1045.11 C 1374.16 1062.02 1375.43 1080.26 1374.85 1097.08 C 1372.9 1153.93 1382.67 1209.44 1424.12 1251.62 C 1466.82 1295.07 1518.11 1313.07 1577.84 1303.85 C 1562.99 1316.1 1525.26 1340.05 1507.93 1351.91 L 1464.13 1382.09 C 1458.41 1386.05 1447.55 1394.01 1441.74 1397.37 C 1395.71 1428.73 1349.85 1460.33 1304.16 1492.17 C 1305.68 1416.67 1303.57 1340.69 1304.29 1265.15 C 1304.42 1251.61 1303.68 1237.72 1304.53 1224.23 C 1302.36 1195.49 1281.9 1189.03 1259.39 1203.47 C 1242.67 1214.19 1226.52 1225.43 1210.18 1236.67 L 1074.57 1329.99 C 1040.79 1353.25 988.104 1392.92 952.067 1406.16 z" fill="none" transform="translate(0,0)"></path>
<path d="M 1304.53 1224.23 C 1306.56 1229.85 1305.23 1326.46 1305.2 1341.26 C 1317.61 1341.36 1330.6 1340.81 1342.68 1344.08 C 1355.96 1347.68 1429.98 1388.61 1441.74 1397.37 C 1395.71 1428.73 1349.85 1460.33 1304.16 1492.17 C 1305.68 1416.67 1303.57 1340.69 1304.29 1265.15 C 1304.42 1251.61 1303.68 1237.72 1304.53 1224.23 z" fill="rgb(199,157,233)" transform="translate(0,0)"></path>
<path d="M 1303.3 1017.14 C 1307.12 1016.89 1318.92 1017.09 1319.93 1022.69 C 1324.44 1044.47 1327.85 1104.7 1307.35 1119.81 C 1265.67 1150.51 1215.62 1187.82 1171.45 1214.81 C 1168.53 1215.19 1165.18 1215.45 1162.29 1214.7 C 1159.01 1213.86 1156.23 1211.89 1154.55 1208.92 C 1149.08 1199.27 1151.01 1146.38 1154.41 1134.52 C 1156.88 1125.93 1160.49 1118.75 1166.81 1112.31 C 1182.02 1096.83 1212.57 1078.62 1231.73 1065.4 C 1255.03 1049.31 1278.55 1030.79 1303.3 1017.14 z" fill="none" transform="translate(0,0)"></path>
<path d="M 1306.25 1019 C 1308.5 1019.04 1310.55 1019.25 1312.66 1020.05 C 1315.38 1021.08 1317.42 1023.21 1318.58 1025.85 C 1321.54 1032.53 1320.69 1076.52 1319.61 1085.84 C 1318.93 1091.66 1317.68 1097.34 1315.36 1102.75 C 1312.63 1109.1 1308.4 1116.11 1303.26 1120.73 C 1290.7 1132.04 1177.97 1209.07 1167.7 1213.03 C 1150.14 1211.55 1154.52 1194.99 1154.23 1181.5 C 1153.98 1169.69 1153.35 1155.18 1154.95 1143.74 C 1155.8 1137.63 1157.53 1131.67 1160.11 1126.06 C 1167.71 1109.95 1214.63 1079.44 1232.16 1068.15 C 1250.12 1056.57 1289.18 1025.55 1306.25 1019 z" fill="rgb(199,157,233)" transform="translate(0,0)"></path>
<path d="M 1093.25 1156.05 C 1112.76 1156.08 1111.99 1172.98 1111.94 1188.46 C 1111.96 1204.36 1112.62 1220.6 1108.77 1236.09 C 1102.19 1262.53 1058.82 1288.59 1036.06 1301.23 C 1018.55 1302.2 1016.36 1292.47 1016.58 1276.74 C 1016.92 1250.99 1012.61 1211.86 1036.45 1194.28 C 1049.55 1184.61 1079.08 1161.41 1093.25 1156.05 z" fill="none" transform="translate(0,0)"></path>
<path d="M 1092.38 1158.98 C 1096.74 1158.73 1105.26 1159.43 1106.45 1164.66 C 1110.95 1183.59 1110.18 1216.88 1106.43 1235.67 C 1101.77 1259.07 1055.05 1287.74 1035.21 1298.58 C 1033.14 1298.78 1030.89 1299.07 1028.84 1298.63 C 1025.76 1297.98 1022.92 1295.91 1021.4 1293.14 C 1016.72 1284.59 1018.68 1233.61 1021.88 1222.43 C 1028.34 1199.91 1045.96 1189.51 1064.24 1177.18 C 1073.49 1170.94 1082.64 1164.45 1092.38 1158.98 z" fill="rgb(242,88,164)" transform="translate(0,0)"></path>
<path d="M 909.881 210.277 C 931.85 195.527 951.123 184.065 978.387 195.25 C 992.758 204.948 1002.14 219.637 1002.3 237.265 C 1003.39 268.899 1002.89 301.916 1002.88 333.69 C 1003.3 396.139 978.461 427.423 927.213 459.654 C 906.825 473.743 886.332 487.68 865.736 501.464 C 854.122 509.379 836.89 521.92 825.01 528.592 C 812.755 538.328 793.798 550.427 780.504 559.313 C 769.596 566.604 753.237 578.313 742.201 584.793 C 730.956 593.193 652.278 647.608 642.415 651.29 C 639.207 655.687 568.057 702.733 559.291 707.771 C 537.733 724.097 514.038 740.218 485.935 730.997 C 469.588 721.154 463.107 706.907 463.015 688.23 C 462.096 657.202 463.644 625.651 462.578 594.571 C 462.416 589.841 461.564 579.265 462.628 575.2 C 464.812 522.554 493.454 491.533 534.692 463.586 C 564.523 444.209 596.653 421.971 625.907 401.613 C 626.502 400.99 626.363 401.081 627.138 400.722 C 631.631 398.047 637.225 394.087 641.681 391.12 C 643.467 389.38 661.083 377.772 664.247 375.63 C 683.708 362.366 703.255 349.227 722.886 336.215 C 722.654 336.586 820.115 270.29 827.459 266.201 C 832.331 260.919 900.487 216.324 909.881 210.277 z" fill="rgb(91,3,164)" transform="translate(0,0)"></path>
<path d="M 722.886 336.215 C 720.929 346.672 618.315 511.179 605.229 533.071 L 521.935 672.036 C 513.611 685.739 494.614 719.161 485.935 730.997 C 469.588 721.154 463.107 706.907 463.015 688.23 C 462.096 657.202 463.644 625.651 462.578 594.571 C 462.416 589.841 461.564 579.265 462.628 575.2 C 464.812 522.554 493.454 491.533 534.692 463.586 C 564.523 444.209 596.653 421.971 625.907 401.613 C 626.502 400.99 626.363 401.081 627.138 400.722 C 631.631 398.047 637.225 394.087 641.681 391.12 C 643.467 389.38 661.083 377.772 664.247 375.63 C 683.708 362.366 703.255 349.227 722.886 336.215 z" fill="none" transform="translate(0,0)"></path>
<path d="M 627.138 400.722 C 631.631 398.047 637.225 394.087 641.681 391.12 C 599.564 464.235 553.319 536.582 510.697 609.544 C 495.599 635.388 477.425 662.403 463.015 688.23 C 462.096 657.202 463.644 625.651 462.578 594.571 C 462.416 589.841 461.564 579.265 462.628 575.2 C 464.812 522.554 493.454 491.533 534.692 463.586 C 564.523 444.209 596.653 421.971 625.907 401.613 C 626.502 400.99 626.363 401.081 627.138 400.722 z" fill="rgb(91,3,164)" transform="translate(0,0)"></path>
<path d="M 534.692 463.586 C 533.102 470.177 497.718 527.096 490.961 538.862 C 483.295 552.211 470.792 574.37 462.717 588.162 L 462.628 575.2 C 464.812 522.554 493.454 491.533 534.692 463.586 z" fill="none" transform="translate(0,0)"></path>
<path d="M 978.387 195.25 C 992.758 204.948 1002.14 219.637 1002.3 237.265 C 1003.39 268.899 1002.89 301.916 1002.88 333.69 C 1003.3 396.139 978.461 427.423 927.213 459.654 C 906.825 473.743 886.332 487.68 865.736 501.464 C 854.122 509.379 836.89 521.92 825.01 528.592 C 812.755 538.328 793.798 550.427 780.504 559.313 C 769.596 566.604 753.237 578.313 742.201 584.793 C 742.952 578.084 957.878 230.426 978.387 195.25 z" fill="none" transform="translate(0,0)"></path>
<path d="M 1002.3 237.265 C 1003.39 268.899 1002.89 301.916 1002.88 333.69 C 1003.3 396.139 978.461 427.423 927.213 459.654 C 906.825 473.743 886.332 487.68 865.736 501.464 C 854.122 509.379 836.89 521.92 825.01 528.592 C 831.304 516.557 844.493 496.314 851.876 484.267 L 901.726 402.675 L 969.432 290.809 C 980.077 273.326 991.054 254.228 1002.3 237.265 z" fill="rgb(91,3,164)" transform="translate(0,0)"></path>
<path d="M 927.213 459.654 C 927.565 456.702 996.145 344.031 1002.88 333.69 C 1003.3 396.139 978.461 427.423 927.213 459.654 z" fill="none" transform="translate(0,0)"></path>
<path d="M 909.881 210.277 C 931.85 195.527 951.123 184.065 978.387 195.25 C 957.878 230.426 742.952 578.084 742.201 584.793 C 730.956 593.193 652.278 647.608 642.415 651.29 C 649.057 638.254 661.087 620.137 669.05 607.102 L 719.736 523.913 L 847.863 312.869 C 868.115 279.35 890.587 244.127 909.881 210.277 z" fill="rgb(91,3,164)" transform="translate(0,0)"></path>
<path d="M 909.881 210.277 C 890.587 244.127 868.115 279.35 847.863 312.869 L 719.736 523.913 L 669.05 607.102 C 661.087 620.137 649.057 638.254 642.415 651.29 C 639.207 655.687 568.057 702.733 559.291 707.771 C 560.8 703.684 575.106 680.925 578.311 675.629 L 624.758 598.827 L 827.459 266.201 C 832.331 260.919 900.487 216.324 909.881 210.277 z" fill="none" transform="translate(0,0)"></path>
<path d="M 999.178 381.862 L 999.27 381.426 L 999.179 381.32 L 999.812 380.611 L 999.273 380.943 C 999.522 380.396 999.542 380.283 1000.11 379.923 C 1000.21 379.864 1000.39 379.873 1000.41 379.952 C 1001.53 383.654 1001 398.891 1000.83 402.335 L 1000.78 524.534 C 968.367 548.042 934.149 569.526 901.503 592.775 C 848.082 630.819 796.865 653.95 765.394 715.163 C 748.06 756.797 749.203 772.494 749.222 817.035 C 749.249 880.805 749.989 944.931 749.311 1008.67 C 717.156 1033.36 685.769 1061.95 655.899 1089.27 C 654.987 1054.68 656.049 1018.15 655.558 983.13 C 684.031 964.083 711.347 950.055 719.444 913.908 C 722.587 899.879 722.788 877.104 705.123 873.892 C 689.014 870.964 672.372 885.574 659.765 894.195 C 595.333 939.063 528.072 985.402 462.845 1029.02 L 462.863 859.387 C 462.845 820.81 462.255 780.695 463.082 742.222 C 462.968 738.918 462.313 710.191 463.558 709.445 C 464.846 710.27 465.276 712.581 465.636 713.955 C 483.77 741.566 508.49 743.199 535.278 726.575 C 564.071 708.707 592.163 689.284 620.289 670.339 L 779.9 562.617 L 891.404 487.163 C 909.647 474.937 947.444 450.781 962.633 437.244 C 962.965 436.306 963.217 436.202 964.161 435.866 C 980.556 421.092 991.981 402.602 999.178 381.862 z" fill="none" transform="translate(0,0)"></path>
<path d="M 685.838 808.28 C 660.052 823.919 553.332 903.158 538.252 906.106 C 533.304 907.074 527.736 906.483 523.616 903.364 C 519.312 900.108 517.39 894.95 516.671 889.767 C 515.681 882.633 516.205 874.727 516.136 867.467 C 515.931 845.841 515.435 825.67 529.692 807.916 C 532.626 804.261 535.792 801.125 539.503 798.28 C 566.114 777.876 595.372 759.85 623.063 740.869 C 642.746 727.376 667.852 707.965 688.123 696.814 C 691.002 695.23 693.814 694.343 697.108 694.101 C 701.655 693.769 706.457 694.837 709.777 698.129 C 719.881 708.147 716.1 745.857 715.933 760.392 C 710.839 785.833 705.386 792.127 685.838 808.28 z" fill="none" transform="translate(0,0)"></path>
<path d="M 692.083 697.255 C 717.109 693.054 713.635 714.473 713.569 730.897 C 713.49 750.621 715.285 769.011 704.111 786.312 C 694.68 800.916 677.158 810.941 663.311 820.428 L 614.712 853.711 L 569.576 884.676 C 560.971 890.574 549.309 899.162 540.239 903.633 C 516.947 907.196 519.388 889.079 518.927 873.4 C 517.857 838.769 517.181 815.542 549.13 794.493 C 597.036 762.93 643.721 727.942 692.083 697.255 z" fill="rgb(242,88,164)" transform="translate(0,0)"></path>
<path d="M 715.933 760.392 C 715.924 760.399 728.951 746.733 730.086 745.549 C 741.994 733.119 751.442 725.113 765.394 715.163 C 748.06 756.797 749.203 772.494 749.222 817.035 C 749.249 880.805 749.989 944.931 749.311 1008.67 C 717.156 1033.36 685.769 1061.95 655.899 1089.27 C 654.987 1054.68 656.049 1018.15 655.558 983.13 C 684.031 964.083 711.347 950.055 719.444 913.908 C 722.587 899.879 722.788 877.104 705.123 873.892 C 689.014 870.964 672.372 885.574 659.765 894.195 C 660.006 875.711 667.975 848.544 675.852 831.68 C 678.337 826.358 684.92 813.305 685.838 808.28 C 705.386 792.127 710.839 785.833 715.933 760.392 z" fill="rgb(199,157,233)" transform="translate(0,0)"></path>
<path d="M 463.082 742.222 C 462.968 738.918 462.313 710.191 463.558 709.445 C 464.846 710.27 465.276 712.581 465.636 713.955 C 463.304 719.104 464.926 733.347 463.082 742.222 z" fill="none" transform="translate(0,0)"></path>
<path d="M 999.178 381.862 L 999.27 381.426 L 999.179 381.32 L 999.812 380.611 L 999.273 380.943 C 999.522 380.396 999.542 380.283 1000.11 379.923 C 1000.21 379.864 1000.39 379.873 1000.41 379.952 C 1001.53 383.654 1001 398.891 1000.83 402.335 C 1000.07 395.117 1000.73 388.82 999.178 381.862 z" fill="rgb(166,158,170)" transform="translate(0,0)"></path>
<path d="M 1320.12 414.49 C 1366.53 418.781 1409.54 440.455 1448.69 464.411 L 1448.45 545.968 C 1381.56 513.555 1317.66 513.804 1250.21 545.877 C 1112.33 611.439 1011.28 743.25 959.255 884.281 C 948.798 913.564 938.281 944.623 932.969 975.391 C 909.404 991.801 885.739 1008.07 861.978 1024.19 C 852.662 1030.57 836.028 1041.24 827.908 1047.89 C 827.855 1020.98 827.245 992.025 827.833 965.29 C 827.671 936.208 827.671 907.125 827.833 878.043 C 827.808 854.734 826.406 827.808 830.245 805.029 C 837.686 760.879 867.284 722.932 903.808 698.382 C 914.788 691.002 925.831 683.335 936.842 675.828 L 1021.62 618.182 L 1320.12 414.49 z" fill="rgb(199,157,233)" transform="translate(0,0)"></path>
<path d="M 827.833 965.29 C 831.644 962.67 843.918 948.151 849.534 943.055 C 879.253 916.088 920.086 894.073 959.255 884.281 C 948.798 913.564 938.281 944.623 932.969 975.391 C 909.404 991.801 885.739 1008.07 861.978 1024.19 C 852.662 1030.57 836.028 1041.24 827.908 1047.89 C 827.855 1020.98 827.245 992.025 827.833 965.29 z" fill="rgb(207,128,231)" transform="translate(0,0)"></path>
<path d="M 1381.73 1441.74 C 1412.72 1419.01 1448.88 1395.72 1480.89 1373.56 C 1525.71 1342.54 1570.64 1311.17 1617.5 1283.45 C 1619.35 1305.74 1618.12 1350.03 1618.12 1373.8 L 1618.04 1433.51 C 1618.04 1443.05 1618.46 1456.93 1617.85 1466.2 C 1617.92 1467.08 1618.08 1470.96 1617.36 1471.49 C 1579.34 1498.96 1539.34 1524.1 1500.78 1550.79 C 1500.46 1532.19 1505.49 1496.59 1492.72 1482.47 C 1483.27 1472.03 1469.55 1476.73 1459.12 1483.4 C 1438.56 1496.55 1418.56 1510.8 1398.38 1524.68 L 1302.44 1590.05 C 1274.93 1608.63 1247.51 1627.35 1220.2 1646.22 C 1137.06 1702.92 1137.42 1708.86 1137.79 1807.74 C 1116.15 1822.22 992.595 1909.9 978.91 1912.88 C 970.695 1914.66 963.635 1910.73 957.002 1906.45 C 949.252 1891.41 951.712 1858.52 951.701 1840.4 L 951.679 1742.33 C 963.157 1738.53 985.376 1730.44 995.22 1724.74 C 1020.24 1710.24 1046.18 1691.45 1070.16 1674.94 L 1181.78 1598.98 L 1249.66 1552.83 C 1276.98 1534.25 1293.36 1528.84 1303.7 1495.55 L 1372.9 1447.63 C 1373.53 1447.02 1373.39 1447.1 1374.19 1446.76 L 1381.73 1441.74 z" fill="rgb(91,3,164)" transform="translate(0,0)"></path>
<path d="M 1381.73 1441.74 C 1412.72 1419.01 1448.88 1395.72 1480.89 1373.56 C 1525.71 1342.54 1570.64 1311.17 1617.5 1283.45 C 1619.35 1305.74 1618.12 1350.03 1618.12 1373.8 L 1618.04 1433.51 C 1618.04 1443.05 1618.46 1456.93 1617.85 1466.2 C 1617.35 1462.32 1617.35 1457.26 1617.34 1453.25 C 1617.28 1428.76 1616.5 1403.97 1617.14 1379.51 C 1606.84 1389.72 1585.02 1402.62 1572.63 1410.84 C 1532.81 1437.28 1508.01 1460.85 1457.05 1459.88 C 1431.66 1459.4 1404.4 1453.93 1381.73 1441.74 z" fill="rgb(136,30,185)" transform="translate(0,0)"></path>
<path d="M 1617.5 1283.45 C 1619.35 1305.74 1618.12 1350.03 1618.12 1373.8 L 1618.04 1433.51 C 1618.04 1443.05 1618.46 1456.93 1617.85 1466.2 C 1617.35 1462.32 1617.35 1457.26 1617.34 1453.25 C 1617.28 1428.76 1616.5 1403.97 1617.14 1379.51 C 1617.85 1372.14 1617.06 1362.12 1617.26 1354.54 C 1617.82 1332.62 1615.51 1305 1617.5 1283.45 z" fill="rgb(62,6,116)" transform="translate(0,0)"></path>
<path d="M 717.15 1163.99 L 719.84 1165.64 L 719.727 1170.27 C 720.062 1176.18 719.769 1182.02 719.582 1187.94 C 734.724 1196.82 759.377 1210.26 773.045 1219.49 L 773.062 1418.82 C 759.743 1415.74 729.518 1407.96 718.707 1401.02 L 714.927 1402.44 C 793.494 1439.65 914.309 1437.4 989.672 1390.79 C 1014.7 1375.32 1040.66 1356.28 1065.15 1339.5 L 1225.92 1228.91 C 1242.2 1217.66 1281.13 1183.03 1297.32 1207.42 C 1303.3 1216.43 1302.01 1235 1301.9 1245.84 C 1289.4 1252.6 1254.54 1278.05 1241.79 1286.88 L 1069.54 1406.01 C 1014.03 1444.26 971.862 1480.79 901.969 1490.85 C 826.623 1502.03 741.168 1494.51 678.086 1448.67 C 628.965 1412.98 616.142 1378.91 617.852 1320.89 C 619.163 1276.45 616.524 1260.3 644.677 1222 C 645.384 1220.83 647.883 1218.3 648.941 1217.15 L 647.772 1214.99 C 653.874 1206.28 705.738 1171.5 717.15 1163.99 z" fill="rgb(242,88,164)" transform="translate(0,0)"></path>
<path d="M 717.15 1163.99 L 719.84 1165.64 L 719.727 1170.27 C 720.062 1176.18 719.769 1182.02 719.582 1187.94 C 734.724 1196.82 759.377 1210.26 773.045 1219.49 L 773.062 1418.82 C 759.743 1415.74 729.518 1407.96 718.707 1401.02 L 714.927 1402.44 C 674.582 1382.46 620.359 1345.1 631.019 1290.45 C 634.507 1272.57 641.206 1256.39 641.459 1237.4 C 641.506 1233.88 643.879 1227.63 644.448 1223.69 L 644.677 1222 C 645.384 1220.83 647.883 1218.3 648.941 1217.15 L 647.772 1214.99 C 653.874 1206.28 705.738 1171.5 717.15 1163.99 z" fill="none" transform="translate(0,0)"></path>
<path d="M 718.707 1401.02 C 720.017 1386.69 719.126 1354.69 719.126 1339.69 L 719.051 1222.57 C 719.039 1215.03 718.484 1175.9 719.727 1170.27 C 720.062 1176.18 719.769 1182.02 719.582 1187.94 C 734.724 1196.82 759.377 1210.26 773.045 1219.49 L 773.062 1418.82 C 759.743 1415.74 729.518 1407.96 718.707 1401.02 z" fill="rgb(207,128,231)" transform="translate(0,0)"></path>
<path d="M 1196.77 1665.49 L 1387.15 1535.62 C 1412.74 1518.44 1437.95 1500.44 1463.56 1483.86 C 1479.69 1473.41 1497.7 1482.62 1497.62 1500.02 C 1497.48 1532.9 1499.57 1571.83 1497.81 1604.3 C 1497.5 1610.66 1496.66 1616.99 1495.3 1623.22 C 1490.61 1644.25 1473.68 1675.1 1454.86 1686.48 C 1453.32 1687.76 1451.75 1689 1450.14 1690.2 C 1435.2 1701.53 1411.54 1716.56 1395.42 1727.53 L 1285.19 1802.47 L 1216.01 1849.8 C 1203.37 1858.48 1175.9 1880.86 1161.64 1878.67 C 1134.01 1874.43 1140.43 1833.9 1140.15 1814.6 C 1139.19 1747.26 1133.83 1705.54 1196.77 1665.49 z" fill="rgb(238,160,208)" transform="translate(0,0)"></path>
<path d="M 1454.86 1686.48 C 1453.32 1687.76 1451.75 1689 1450.14 1690.2 C 1435.2 1701.53 1411.54 1716.56 1395.42 1727.53 L 1285.19 1802.47 L 1216.01 1849.8 C 1203.37 1858.48 1175.9 1880.86 1161.64 1878.67 C 1134.01 1874.43 1140.43 1833.9 1140.15 1814.6 C 1139.19 1747.26 1133.83 1705.54 1196.77 1665.49 C 1204.78 1670.83 1222.13 1677.25 1231.9 1680.71 C 1292.09 1702.02 1356.04 1707.17 1418.95 1696.43 C 1428.59 1694.78 1450.13 1686.94 1454.86 1686.48 z" fill="rgb(199,157,233)" transform="translate(0,0)"></path>
<path d="M 912.388 1135.91 C 936.992 1109.89 981.803 1083.42 1012.39 1062.63 L 1168.42 956.216 L 1495.87 732.99 L 1604.32 659.119 C 1620.71 647.935 1670.27 610.218 1688.37 609.274 C 1703.36 608.493 1743.01 633.648 1757.93 642.71 C 1746.68 643.203 1738.51 645.07 1728.9 651.351 C 1710.73 663.226 1692.62 675.942 1674.74 688.25 L 1577.73 754.905 L 1289.75 953.01 L 1094.98 1086.48 L 1041.68 1122.84 C 1023.93 1134.96 1003.46 1147.65 989.171 1163.39 C 970.51 1184.23 957.734 1209.66 952.154 1237.08 C 940.39 1233.06 927.065 1220.56 920.799 1209.88 C 906.848 1186.11 906.143 1161.87 912.388 1135.91 z" fill="rgb(238,160,208)" transform="translate(0,0)"></path>
<path d="M 879.613 1069.03 L 1362.04 737.256 L 1519.14 629.912 L 1568.94 595.701 C 1580.5 587.738 1609.53 561.398 1621.32 582.96 C 1628.48 596.048 1626.07 624.917 1626.03 640.839 L 1212.43 922.97 L 1064.22 1023.99 C 1024.67 1051.13 984.066 1079.55 943.949 1105.81 C 934.245 1097.49 892.847 1076.04 879.613 1069.03 z" fill="rgb(242,88,164)" transform="translate(0,0)"></path>
<path d="M 719.84 1165.64 C 726.866 1126.67 743.924 1108.64 775.225 1086.89 L 1282.36 738.613 L 1452.97 621.779 L 1512.4 580.889 C 1557.73 549.712 1555.58 541.688 1604.98 571.989 C 1599.37 573.103 1596.76 573.773 1592.02 576.961 C 1551.4 604.294 1511.19 632.491 1470.68 659.988 L 1145.74 882.82 L 931.695 1030.05 C 901.54 1050.84 860.826 1076.89 832.678 1098.29 C 818.929 1108.63 806.983 1121.17 797.322 1135.41 C 780.064 1161.35 773.411 1188.69 773.045 1219.49 C 759.377 1210.26 734.724 1196.82 719.582 1187.94 C 719.769 1182.02 720.062 1176.18 719.727 1170.27 L 719.84 1165.64 z" fill="none" transform="translate(0,0)"></path>
<path d="M 620.056 1444.61 C 664.982 1569.94 845.142 1588.24 954.789 1549.18 C 992.416 1535.78 1025.72 1509.89 1058.45 1487.33 L 1147.26 1426.12 L 1244.45 1358.92 C 1261.45 1347.24 1285.99 1331.52 1301.89 1319.31 L 1301.87 1388.94 C 1277.61 1404.27 1250.91 1423.56 1226.87 1439.99 L 1077.78 1541.88 C 1043.46 1565.26 1003.04 1596.59 965.134 1611.81 C 866.329 1651.47 699.164 1641.45 637.858 1543.99 C 636.685 1542.12 635.596 1540.19 634.597 1538.22 C 614.695 1507.14 617.587 1476.77 618.248 1441.86 C 618.254 1441.56 618.364 1441.54 618.533 1441.46 C 619.312 1442.2 619.709 1443.59 620.056 1444.61 z" fill="rgb(136,30,185)" transform="translate(0,0)"></path>
<path d="M 634.597 1538.22 C 614.695 1507.14 617.587 1476.77 618.248 1441.86 C 618.254 1441.56 618.364 1441.54 618.533 1441.46 C 619.312 1442.2 619.709 1443.59 620.056 1444.61 C 619.11 1450.16 619.938 1451.79 619.526 1456.7 C 618.548 1468.38 619.464 1478.93 620.774 1490.1 C 622.068 1501.14 621.595 1505.36 626.059 1516.56 C 628.395 1522.43 634.442 1533.68 634.597 1538.22 z" fill="rgb(181,53,186)" transform="translate(0,0)"></path>
<path d="M 620.313 1378.03 C 663.909 1499.08 846.128 1518.97 952.861 1480.21 C 986.063 1468.15 1010.32 1450.13 1038.8 1430.39 L 1090.9 1394.41 L 1224.21 1302.21 C 1249.48 1284.7 1276.31 1265.32 1301.89 1248.62 L 1301.89 1316.43 L 1103.43 1453.15 L 1042.19 1495.38 C 1014.89 1514.31 987.495 1534.97 955.168 1546.24 C 853.414 1581.74 706.842 1571.64 639.172 1477.9 C 617.676 1448.13 617.4 1422.08 618.12 1387.17 C 618.03 1384.85 617.464 1374 618.517 1372.56 C 619.422 1374.83 619.78 1375.27 620.313 1378.03 z" fill="url(#Gradient3)" transform="translate(0,0)"></path>
<path d="M 618.12 1387.17 C 618.03 1384.85 617.464 1374 618.517 1372.56 C 619.422 1374.83 619.78 1375.27 620.313 1378.03 C 618.086 1381.39 618.878 1383.12 618.12 1387.17 z" fill="rgb(181,53,186)" transform="translate(0,0)"></path>
<path d="M 1301.01 1392.13 C 1302.78 1395.17 1301.97 1449.61 1301.95 1457.16 C 1242.27 1496.6 1180.49 1538.82 1121.31 1579.19 L 1053.19 1625.21 C 1014.57 1651.46 986.749 1673.62 940.759 1687.11 C 831.787 1719.06 659.351 1697.69 621.464 1571.91 C 616.131 1553.99 617.884 1525.14 618.188 1505.84 C 660.378 1640.39 844.834 1657.35 958.915 1617.05 C 992.709 1605.11 1016.79 1586.79 1045.68 1566.93 L 1106.27 1525.46 L 1301.01 1392.13 z" fill="rgb(136,30,185)" transform="translate(0,0)"></path>
<path d="M 376.883 881.106 C 378.761 883 377.911 1071.44 377.887 1087.13 C 355.673 1102.61 333.326 1117.91 310.849 1133 C 300.368 1140.12 283.213 1151.08 274.293 1159 C 267.532 1164.99 261.798 1172.04 257.318 1179.88 C 246.618 1198.6 239.226 1229.6 262.867 1241.75 C 243.854 1253.48 234.22 1266.43 209.801 1259.41 C 184.169 1245.48 189.142 1217.51 188.943 1193.2 C 188.851 1182.05 189.061 1170.84 189.047 1159.67 L 188.933 1089.97 C 188.859 1028.86 189.312 1006.21 244.321 970.357 C 288.484 941.57 332.27 909.619 376.883 881.106 z" fill="rgb(199,157,233)" transform="translate(0,0)"></path>
<path d="M 693.433 876.139 C 720.632 874.538 722.187 896.835 715.959 917.618 C 711.675 931.745 703.532 944.396 692.448 954.147 C 679.989 964.93 642.642 988.894 626.618 999.854 L 488.37 1094.24 L 345.857 1191.12 C 329.395 1202.3 290.014 1230.53 274.471 1238.81 C 245.396 1243.47 247.085 1209.34 254.853 1191.1 C 259.88 1179.3 266.676 1167.59 277.178 1159.87 C 301.476 1142.01 326.772 1125.3 351.682 1108.27 L 505.151 1003.41 L 631.644 916.682 C 644.088 908.164 682.044 881.149 693.433 876.139 z" fill="rgb(242,88,164)" transform="translate(0,0)"></path>
<path d="M 618.804 1572.47 C 658.577 1701.26 832.833 1722.62 944.953 1688.46 C 983.753 1676.63 1003.84 1661.91 1036.56 1639.5 L 1099.03 1597.32 L 1215.28 1518.93 C 1243.7 1499.6 1272.97 1479.04 1301.79 1460.47 C 1302.2 1517.43 1295.98 1518.2 1250.23 1549.32 L 1188.92 1591.01 L 1073.63 1669.54 C 1043.59 1690.09 1007.55 1717.64 974.435 1731.42 C 930.364 1749.76 878.663 1755.26 831.355 1753.96 C 737.256 1751.86 627.086 1703.99 617.854 1598.06 C 616.226 1590.1 617.182 1578.18 617.17 1569.92 C 617.168 1568.77 618.983 1569.05 618.804 1572.47 z" fill="rgb(91,3,164)" transform="translate(0,0)"></path>
<path d="M 617.854 1598.06 C 616.226 1590.1 617.182 1578.18 617.17 1569.92 C 617.168 1568.77 618.983 1569.05 618.804 1572.47 C 617.248 1579.4 618.181 1590.23 617.854 1598.06 z" fill="none" transform="translate(0,0)"></path>
<path d="M 879.613 1069.03 C 892.847 1076.04 934.245 1097.49 943.949 1105.81 C 868.374 1159.37 869.769 1209.8 869.879 1293.21 L 870.008 1424.73 C 857.013 1425.39 835.359 1426.96 822.819 1425.15 C 809.852 1425.45 788.678 1421.82 775.529 1419.49 L 775.491 1275.2 C 775.473 1254.74 774.507 1213.92 777.374 1195.14 C 777.568 1193.23 777.805 1191.86 778.158 1190.04 C 790.855 1124.65 829.786 1102.93 879.613 1069.03 z" fill="rgb(207,128,231)" transform="translate(0,0)"></path>
<path d="M 777.374 1195.14 C 779.697 1199.79 780.309 1207.43 781.682 1212.98 C 784.725 1225.27 789.199 1236.67 795.296 1247.76 C 803.838 1263.29 820.826 1271.67 831.22 1284.71 C 851.108 1309.68 847.908 1340.09 847.779 1369.98 C 847.622 1388.3 847.67 1406.63 847.924 1424.95 C 841.013 1424.95 829.363 1424.59 822.819 1425.15 C 809.852 1425.45 788.678 1421.82 775.529 1419.49 L 775.491 1275.2 C 775.473 1254.74 774.507 1213.92 777.374 1195.14 z" fill="none" transform="translate(0,0)"></path>
<path d="M 520.775 1332.25 C 561.138 1344.5 582.771 1328.32 615.148 1306.24 L 615.183 1319.96 L 615.047 1523.97 C 596.331 1537.89 576.827 1549.43 558.252 1562.64 C 536.722 1577.68 507.111 1595.06 481.223 1576.76 C 455.477 1558.57 464.198 1516.7 463.051 1489.08 C 464.85 1474.94 459.896 1441.61 463.28 1429.57 C 471.331 1400.94 504.319 1355.77 520.775 1332.25 z" fill="none" transform="translate(0,0)"></path>
<path d="M 558.252 1562.64 C 556.254 1537.96 557.895 1500.93 557.534 1474.45 C 557.264 1454.62 556.18 1410.36 558.828 1391.8 C 564.213 1354.04 588.044 1339.65 615.183 1319.96 L 615.047 1523.97 C 596.331 1537.89 576.827 1549.43 558.252 1562.64 z" fill="rgb(199,157,233)" transform="translate(0,0)"></path>
<path d="M 380.256 1171.11 C 405.482 1153.89 436.017 1134.42 460.063 1116.86 L 460.268 1405.11 L 459.98 1494.66 C 459.965 1513.28 458.758 1535.03 462.493 1553.4 C 463.514 1558.42 470.006 1565.55 470.623 1571.18 C 468.474 1570.5 468.001 1570.37 466.022 1569.32 C 464.927 1569.01 465.061 1569.12 464.214 1568.34 C 456.979 1563.99 447.744 1559.32 440.194 1555.24 C 438.592 1554.77 437.705 1555.04 437.064 1553.45 L 429.189 1549.26 C 427.587 1548.77 426.715 1549.03 426.036 1547.46 L 418.185 1543.27 C 415.407 1542.27 415.856 1543.76 415.26 1541.55 C 390.955 1526.89 385.655 1517.51 380.871 1489.53 C 379.406 1477.92 380.041 1447.68 380.016 1435.23 L 379.93 1327.86 L 379.942 1231.38 C 379.843 1216.53 378.836 1185.22 380.256 1171.11 z" fill="rgb(91,3,164)" transform="translate(0,0)"></path>
<path d="M 380.871 1489.53 C 379.406 1477.92 380.041 1447.68 380.016 1435.23 L 379.93 1327.86 L 379.942 1231.38 C 379.843 1216.53 378.836 1185.22 380.256 1171.11 C 381.638 1187.35 380.985 1213.25 380.98 1230.1 L 380.906 1332.56 L 381.026 1434.73 C 381.064 1450.48 381.857 1474.61 380.871 1489.53 z" fill="none" transform="translate(0,0)"></path>
<path d="M 415.26 1541.55 C 416.784 1542.09 417.17 1542.11 418.185 1543.27 C 415.407 1542.27 415.856 1543.76 415.26 1541.55 z" fill="none" transform="translate(0,0)"></path>
<path d="M 462.956 1114.92 C 482.051 1100.4 508.929 1083.19 529.148 1069.41 L 655.558 983.13 C 656.049 1018.15 654.987 1054.68 655.899 1089.27 C 602.107 1138.1 552.235 1191.07 506.743 1247.71 C 491.04 1267.48 477.725 1287.9 462.827 1307.01 L 462.956 1114.92 z" fill="none" transform="translate(0,0)"></path>
<path d="M 609.763 309.66 C 683.827 257.147 761.414 207.655 836.06 156.165 C 871.598 131.65 900.969 151.613 932.505 169.813 C 941.61 175.068 951.083 179.758 960.011 185.395 C 961.257 185.876 964.041 186.602 964.235 188.276 C 963.705 188.754 952.279 188.589 950.505 188.692 C 929.112 192.278 914.902 203.479 897.25 215.275 C 878.833 227.583 860.508 240.033 842.151 252.429 L 690.304 354.951 C 684.664 351.073 672.296 344.41 665.893 340.755 C 647.287 330.203 628.576 319.837 609.763 309.66 z" fill="rgb(238,160,208)" transform="translate(0,0)"></path>
<path d="M 960.011 185.395 C 961.257 185.876 964.041 186.602 964.235 188.276 C 963.705 188.754 952.279 188.589 950.505 188.692 C 955.215 185.153 955.209 187.561 960.011 185.395 z" fill="rgb(242,88,164)" transform="translate(0,0)"></path>
<path d="M 835.867 640.622 C 860.813 652.86 893.823 671.704 918.317 685.666 C 882.255 709.056 859.312 727.174 839.632 767.273 C 822.338 807.311 825.03 829.183 825.037 871.636 L 824.962 974.987 C 801.361 961.612 774.849 948.542 752.107 934.555 L 752.105 827.539 C 752.089 789.554 749.01 761.218 764.133 725.092 C 780.697 687.298 802.236 664.166 835.867 640.622 z" fill="rgb(181,53,186)" transform="translate(0,0)"></path>
<path d="M 963.14 881.238 C 970.577 861.349 978.937 841.818 988.193 822.707 C 1045.23 703.787 1150.62 584.373 1277.6 537.506 C 1337.33 515.458 1391.85 521.542 1448.49 548.878 L 1448.33 599.742 C 1438.51 593.644 1428.22 588.339 1417.56 583.877 C 1365.4 561.691 1314.03 561.899 1261.79 584.071 C 1134.36 638.15 1052.09 750.774 1000.09 874.312 C 991.772 895.869 981.538 923.357 976.169 945.976 C 962.808 955.069 948.861 964.285 935.688 973.567 C 944.424 935.981 950.302 917.17 963.14 881.238 z" fill="rgb(181,53,186)" transform="translate(0,0)"></path>
<path d="M 382.448 510.725 C 409.241 524.172 435.991 540.139 462.698 554.122 C 458.152 578.231 459.922 628.902 459.974 654.969 L 460.098 817.416 C 434.629 817.893 402.196 829.367 380.632 842.732 L 380.149 847.507 C 378.913 833.902 379.806 802.756 379.803 787.647 L 379.773 668.116 L 379.732 569.599 C 379.73 560.421 379.097 529.975 380.736 522.977 L 382.448 510.725 z" fill="rgb(181,53,186)" transform="translate(0,0)"></path>
<path d="M 380.736 522.977 L 380.781 719.266 C 380.704 759.699 379.9 802.467 380.632 842.732 L 380.149 847.507 C 378.913 833.902 379.806 802.756 379.803 787.647 L 379.773 668.116 L 379.732 569.599 C 379.73 560.421 379.097 529.975 380.736 522.977 z" fill="none" transform="translate(0,0)"></path>
<path d="M 1231.74 370.434 C 1232.75 369.797 1233.76 369.16 1234.77 368.523 C 1244.24 375.218 1253.96 379.179 1262.98 385.149 C 1280.71 393.307 1298.94 406.962 1316.54 413.561 C 1250.57 460.076 1181.56 505.76 1114.72 551.357 C 1073.96 552.529 1048.94 541.143 1014.78 518.542 C 1039.21 500.67 1067.72 482.223 1093.05 464.983 L 1231.74 370.434 z" fill="rgb(251,122,171)" transform="translate(0,0)"></path>
<path d="M 1231.74 370.434 C 1232.75 369.797 1233.76 369.16 1234.77 368.523 C 1244.24 375.218 1253.96 379.179 1262.98 385.149 C 1256.22 384.364 1241.99 377.456 1236.75 373.888 L 1231.74 370.434 z" fill="rgb(242,88,164)" transform="translate(0,0)"></path>
<path d="M 380.632 842.732 C 402.196 829.367 434.629 817.893 460.098 817.416 L 460.075 990.717 L 460.092 1030.63 C 433.589 1049.56 406.748 1067.27 380.189 1085.92 L 380.2 1056.23 C 379.578 1047.21 379.526 1035.41 379.927 1026.32 C 382.299 972.646 377.049 915.238 380.19 861.819 C 380.369 857.419 380.179 851.993 380.149 847.507 L 380.632 842.732 z" fill="rgb(136,30,185)" transform="translate(0,0)"></path>
<path d="M 380.19 861.819 C 381.601 887.345 380.66 921.38 380.613 947.41 C 402.857 959.463 439.404 977.779 460.075 990.717 L 460.092 1030.63 C 433.589 1049.56 406.748 1067.27 380.189 1085.92 L 380.2 1056.23 C 379.578 1047.21 379.526 1035.41 379.927 1026.32 C 382.299 972.646 377.049 915.238 380.19 861.819 z" fill="rgb(91,3,164)" transform="translate(0,0)"></path>
<path d="M 380.19 861.819 C 381.601 887.345 380.66 921.38 380.613 947.41 C 380.98 972.275 381.077 997.143 380.904 1022.01 C 380.843 1030.77 381.111 1048.11 380.2 1056.23 C 379.578 1047.21 379.526 1035.41 379.927 1026.32 C 382.299 972.646 377.049 915.238 380.19 861.819 z" fill="none" transform="translate(0,0)"></path>
<path d="M 838.905 638.965 C 894.762 599.618 957.596 556.093 1014.78 518.542 C 1048.94 541.143 1073.96 552.529 1114.72 551.357 C 1050.74 596.092 985.02 639.971 920.447 684.034 C 895.521 669.076 864.781 653.071 838.905 638.965 z" fill="rgb(242,88,164)" transform="translate(0,0)"></path>
<path d="M 1003.5 872.819 C 1016.33 840.966 1031.69 810.191 1049.43 780.789 C 1103.44 691.803 1192.76 602.358 1296.88 575.625 C 1351.08 561.711 1401.23 573.92 1448.46 603.052 L 1448.46 621.576 C 1441.94 626.165 1426.82 637.255 1420.26 640.627 C 1354.26 601.74 1295.95 596.39 1228.1 635.88 C 1138.91 687.793 1078.98 769.023 1039.45 862.924 C 1036.84 863.449 1034.93 863.779 1032.38 864.496 L 1023.03 867.055 C 1016.26 868.838 1010.36 871.19 1003.5 872.819 z" fill="url(#Gradient2)" transform="translate(0,0)"></path>
<path d="M 872.674 1235.21 C 874.196 1197.26 887.607 1164.74 912.388 1135.91 C 906.143 1161.87 906.848 1186.11 920.799 1209.88 C 927.065 1220.56 940.39 1233.06 952.154 1237.08 L 950.161 1250.69 C 947.727 1298.03 950.092 1358.42 949.723 1407 C 923.331 1416.27 900.965 1421.91 872.568 1424.26 C 870.76 1416.09 872.233 1236.6 872.674 1235.21 z" fill="rgb(91,3,164)" transform="translate(0,0)"></path>
<path d="M 872.674 1235.21 C 874.196 1197.26 887.607 1164.74 912.388 1135.91 C 906.143 1161.87 906.848 1186.11 920.799 1209.88 C 927.065 1220.56 940.39 1233.06 952.154 1237.08 L 950.161 1250.69 C 921.541 1272.04 898.82 1300.31 884.134 1332.85 C 880.159 1341.48 876.5 1352.74 872.973 1360.12 C 872.869 1374.84 874.048 1411.94 872.568 1424.26 C 870.76 1416.09 872.233 1236.6 872.674 1235.21 z" fill="rgb(141,58,208)" transform="translate(0,0)"></path>
<path d="M 872.568 1424.26 C 870.76 1416.09 872.233 1236.6 872.674 1235.21 C 873.261 1251.51 872.683 1270.03 872.634 1286.49 L 872.973 1360.12 C 872.869 1374.84 874.048 1411.94 872.568 1424.26 z" fill="none" transform="translate(0,0)"></path>
<path d="M 642.716 1104.95 C 644.804 1131.23 641.489 1162.78 643.545 1188.77 C 581.95 1249.6 524.391 1315.09 479.826 1389.56 C 474.042 1399.22 468.988 1409.55 462.943 1418.99 L 462.932 1312.09 C 514.905 1236.52 575.212 1167.04 642.716 1104.95 z" fill="rgb(238,160,208)" transform="translate(0,0)"></path>
<path d="M 446.67 420.617 L 558.626 344.274 C 574.89 333.292 593.432 319.875 609.763 309.66 C 628.576 319.837 647.287 330.203 665.893 340.755 C 672.296 344.41 684.664 351.073 690.304 354.951 C 636.015 392.046 581.539 428.864 526.876 465.404 C 504.962 451.249 469.996 433.353 446.67 420.617 z" fill="rgb(242,88,164)" transform="translate(0,0)"></path>
<path d="M 1042.23 863.239 C 1052.52 837.809 1064.73 813.197 1078.76 789.618 C 1121.27 718.886 1199.84 637.926 1282.36 616.211 C 1331.13 603.376 1376 617.061 1418.15 642.534 C 1403.61 652.142 1389.23 661.984 1375 672.055 C 1372.49 670.752 1369.96 669.508 1367.39 668.325 C 1331.33 651.826 1297.46 649.585 1260.46 664.336 C 1176.67 697.734 1117.1 775.066 1080.62 854.21 C 1078.86 855.277 1050.89 859.601 1044.05 862.488 L 1042.23 863.239 z" fill="rgb(181,53,186)" transform="translate(0,0)"></path>
<path d="M 1084.19 852.837 C 1084.47 852.123 1084.77 851.413 1085.08 850.706 C 1117.35 777.438 1184.15 696.349 1260.13 667.258 C 1303.45 650.673 1331.83 655.052 1372.72 673.399 L 1330.85 702.153 C 1326.9 701.201 1322.89 700.536 1318.85 700.165 C 1253.31 694.025 1180.65 753.137 1146.12 804.779 C 1140.7 812.886 1122.88 845.025 1119.05 847.751 C 1105.28 857.98 1086.98 869.5 1072.38 879.715 C 1076.28 871.241 1080.6 861.433 1084.19 852.837 z" fill="url(#Gradient1)" transform="translate(0,0)"></path>
<path d="M 1084.19 852.837 C 1096.64 852.761 1106.57 848.17 1119.05 847.751 C 1105.28 857.98 1086.98 869.5 1072.38 879.715 C 1076.28 871.241 1080.6 861.433 1084.19 852.837 z" fill="rgb(207,128,231)" transform="translate(0,0)"></path>
<path d="M 871.548 1756.08 C 897.722 1754.51 923.658 1750.19 948.928 1743.19 L 948.914 1837.58 C 948.907 1856.28 947.674 1886.13 951.4 1903.19 C 947.83 1901.78 946.488 1901.18 943.169 1899.28 C 941.585 1898.74 941.699 1898.95 940.827 1897.78 C 936.402 1895.21 931.703 1892.72 927.2 1890.25 C 925.619 1889.7 924.699 1890.03 924.065 1888.44 L 916.385 1884.23 C 915.259 1883.89 915.639 1884.24 915.084 1883.46 C 911.165 1881 906.291 1878.52 902.167 1876.29 C 900.586 1875.76 899.707 1876.03 899.058 1874.46 C 898.391 1874.1 897.728 1873.73 897.068 1873.36 C 882.634 1865.16 876.385 1859.28 872.024 1843.07 C 870.178 1836.28 870.366 1764.59 871.548 1756.08 z" fill="rgb(91,3,164)" transform="translate(0,0)"></path>
<path d="M 872.024 1843.07 C 870.178 1836.28 870.366 1764.59 871.548 1756.08 C 872.421 1764.39 871.984 1777.81 871.989 1786.56 L 872.024 1843.07 z" fill="none" transform="translate(0,0)"></path>
<path d="M 444.176 421.995 C 451.527 425.359 465.848 433.799 473.486 438.004 C 490.413 447.325 508.448 457.161 524.88 467.21 C 494.02 486.241 471.827 516.587 463.043 551.763 C 439.207 537.657 407.819 521.234 383.323 508.106 C 391.86 469.689 412.831 444.609 444.176 421.995 z" fill="rgb(181,53,186)" transform="translate(0,0)"></path>
<path d="M 642.716 1104.95 C 677.124 1072.47 712.741 1041.3 749.494 1011.5 L 749.552 1098.49 C 722.119 1115.81 666.842 1165.44 643.545 1188.77 C 641.489 1162.78 644.804 1131.23 642.716 1104.95 z" fill="rgb(242,88,164)" transform="translate(0,0)"></path>
<path d="M 752.107 934.555 C 774.849 948.542 801.361 961.612 824.962 974.987 L 825.11 1049.26 C 801.105 1066.93 775.455 1082.38 752.041 1101.14 L 752.107 934.555 z" fill="rgb(136,30,185)" transform="translate(0,0)"></path>
<path d="M 522.388 1330.39 C 533.728 1313.83 550.1 1294.33 563.039 1278.97 C 610.205 1222.75 662.525 1171.05 719.315 1124.57 C 723.981 1120.78 743.229 1104.64 748.108 1103.04 L 748.237 1103.89 C 747.143 1105.68 747.214 1105.72 745.642 1107.02 C 728.491 1127.31 723.021 1138.16 717.15 1163.99 C 705.738 1171.5 653.874 1206.28 647.772 1214.99 C 623.985 1239.29 615.259 1270.08 615.229 1303.22 C 583.182 1325.04 562.455 1341.54 522.388 1330.39 z" fill="rgb(156,105,225)" transform="translate(0,0)"></path>
<path d="M 1234.77 368.523 C 1251.74 356.685 1280.2 336.576 1298.27 328.635 C 1338.53 310.944 1371.83 346.723 1408.89 362.757 L 1409.75 363.117 C 1410.43 363.833 1411.61 364.783 1412.14 365.559 L 1412.15 365.815 C 1410.99 366.822 1404.58 366.172 1402.74 366.169 C 1396.63 367.623 1386.01 369.662 1380.54 372.242 C 1358.42 382.666 1337.21 400.885 1316.54 413.561 C 1298.94 406.962 1280.71 393.307 1262.98 385.149 C 1253.96 379.179 1244.24 375.218 1234.77 368.523 z" fill="rgb(238,160,208)" transform="translate(0,0)"></path>
<path d="M 1409.75 363.117 C 1410.43 363.833 1411.61 364.783 1412.14 365.559 L 1412.15 365.815 C 1410.99 366.822 1404.58 366.172 1402.74 366.169 C 1405.07 365.135 1407.4 364.118 1409.75 363.117 z" fill="none" transform="translate(0,0)"></path>
<path d="M 1306.6 702.428 C 1312.8 701.929 1322.15 703.244 1328.4 703.984 L 1141.16 832.29 L 1125.71 843.081 C 1164.44 775.033 1223.24 708.627 1306.6 702.428 z" fill="rgb(181,53,186)" transform="translate(0,0)"></path>
<path d="M 1401.26 369.297 C 1403.78 369.133 1406.31 369.025 1408.84 368.973 C 1457.48 368.284 1448.71 429.6 1448.49 461.532 C 1432.19 451.391 1419.06 443.883 1401.75 435.589 C 1375.27 423.529 1352.1 416.099 1323.14 412.441 C 1346.24 396.328 1373.73 373.794 1401.26 369.297 z" fill="rgb(199,157,233)" transform="translate(0,0)"></path>
<path d="M 1003.5 872.819 C 1010.36 871.19 1016.26 868.838 1023.03 867.055 L 1032.38 864.496 C 1034.93 863.779 1036.84 863.449 1039.45 862.924 C 1033.15 877.766 1025.94 899.049 1021.21 914.65 L 1018.38 916.604 L 1013.92 919.797 C 1002.34 928.032 990.463 935.911 978.774 944.058 C 986.137 919.458 995.223 896.78 1003.5 872.819 z" fill="rgb(207,128,231)" transform="translate(0,0)"></path>
<path d="M 1042.23 863.239 L 1044.05 862.488 C 1050.89 859.601 1078.86 855.277 1080.62 854.21 C 1077.61 862.312 1073.02 872.746 1069.61 881.313 C 1054.73 892.054 1039.6 902.442 1024.23 912.468 C 1030.3 896.298 1036.33 879.514 1042.23 863.239 z" fill="rgb(181,53,186)" transform="translate(0,0)"></path>
<metadata><recraft-signature>{"signed_by": "recraft", "signature_b64": "TvXBKFiryEsx4pvT8mb+MvxD2XfP4o2Qtt3AEJ0oTZLubHbiF+SxyMTvm8iHgS9fH1SyT+egImArAa0DSPO9DA==", "signing_algo": "Ed25519", "generation_timestamp": 1773854565, "identifier": "6511bb9a-5ac8-41d0-a470-9cafee6224ab"}</recraft-signature></metadata></g></svg>